<?xml version="1.0" encoding="UTF-8"?>
<svg xmlns="http://www.w3.org/2000/svg" xmlns:xlink="http://www.w3.org/1999/xlink"
     width="560.5653333333333" height="209.43733333333333" viewBox="0 -209.43733333333333 560.5653333333333 209.43733333333333">
<defs>
<g id="d0">
<g>
<symbol overflow="visible" id="embed--9148134396832942257-glyph0-0">
<path style="stroke:none;" d=""/>
</symbol>
<symbol overflow="visible" id="embed--9148134396832942257-glyph0-1">
<path style="stroke:none;" d="M 1.578125 -7.125 C 1.578125 -7.296875 1.578125 -7.484375 1.390625 -7.484375 C 1.1875 -7.484375 1.1875 -7.296875 1.1875 -7.125 L 1.1875 2.140625 C 1.1875 2.3125 1.1875 2.5 1.390625 2.5 C 1.578125 2.5 1.578125 2.3125 1.578125 2.140625 Z M 1.578125 -7.125 "/>
</symbol>
<symbol overflow="visible" id="embed--9148134396832942257-glyph0-2">
<path style="stroke:none;" d="M 2.71875 -2.328125 C 2.765625 -2.4375 2.765625 -2.46875 2.765625 -2.5 C 2.765625 -2.515625 2.765625 -2.546875 2.71875 -2.65625 L 0.984375 -7.25 C 0.921875 -7.421875 0.859375 -7.484375 0.75 -7.484375 C 0.640625 -7.484375 0.546875 -7.390625 0.546875 -7.28125 C 0.546875 -7.25 0.546875 -7.234375 0.59375 -7.125 L 2.359375 -2.5 L 0.59375 2.109375 C 0.546875 2.21875 0.546875 2.25 0.546875 2.296875 C 0.546875 2.40625 0.640625 2.5 0.75 2.5 C 0.875 2.5 0.921875 2.390625 0.953125 2.296875 Z M 2.71875 -2.328125 "/>
</symbol>
<symbol overflow="visible" id="embed--9148134396832942257-glyph0-3">
<path style="stroke:none;" d="M 4.421875 -2.5 C 4.421875 -3.5625 3.53125 -4.421875 2.5 -4.421875 C 1.421875 -4.421875 0.546875 -3.53125 0.546875 -2.5 C 0.546875 -1.4375 1.421875 -0.5625 2.5 -0.5625 C 3.53125 -0.5625 4.421875 -1.421875 4.421875 -2.5 Z M 4.421875 -2.5 "/>
</symbol>
<symbol overflow="visible" id="embed--9148134396832942257-glyph1-0">
<path style="stroke:none;" d=""/>
</symbol>
<symbol overflow="visible" id="embed--9148134396832942257-glyph1-1">
<path style="stroke:none;" d="M 4.578125 -3.1875 C 4.578125 -3.984375 4.53125 -4.78125 4.1875 -5.515625 C 3.734375 -6.484375 2.90625 -6.640625 2.5 -6.640625 C 1.890625 -6.640625 1.171875 -6.375 0.75 -5.453125 C 0.4375 -4.765625 0.390625 -3.984375 0.390625 -3.1875 C 0.390625 -2.4375 0.421875 -1.546875 0.84375 -0.78125 C 1.265625 0.015625 2 0.21875 2.484375 0.21875 C 3.015625 0.21875 3.78125 0.015625 4.21875 -0.9375 C 4.53125 -1.625 4.578125 -2.40625 4.578125 -3.1875 Z M 2.484375 0 C 2.09375 0 1.5 -0.25 1.328125 -1.203125 C 1.21875 -1.796875 1.21875 -2.71875 1.21875 -3.3125 C 1.21875 -3.953125 1.21875 -4.609375 1.296875 -5.140625 C 1.484375 -6.328125 2.234375 -6.421875 2.484375 -6.421875 C 2.8125 -6.421875 3.46875 -6.234375 3.65625 -5.25 C 3.765625 -4.6875 3.765625 -3.9375 3.765625 -3.3125 C 3.765625 -2.5625 3.765625 -1.890625 3.65625 -1.25 C 3.5 -0.296875 2.9375 0 2.484375 0 Z M 2.484375 0 "/>
</symbol>
<symbol overflow="visible" id="embed--9148134396832942257-glyph2-0">
<path style="stroke:none;" d=""/>
</symbol>
<symbol overflow="visible" id="embed--9148134396832942257-glyph2-1">
<path style="stroke:none;" d="M 7.609375 -6.046875 C 7.703125 -6.40625 7.71875 -6.5 8.4375 -6.5 C 8.703125 -6.5 8.78125 -6.5 8.78125 -6.703125 C 8.78125 -6.8125 8.671875 -6.8125 8.640625 -6.8125 C 8.359375 -6.8125 7.640625 -6.78125 7.359375 -6.78125 C 7.078125 -6.78125 6.375 -6.8125 6.078125 -6.8125 C 6 -6.8125 5.890625 -6.8125 5.890625 -6.609375 C 5.890625 -6.5 5.984375 -6.5 6.171875 -6.5 C 6.1875 -6.5 6.375 -6.5 6.546875 -6.484375 C 6.734375 -6.453125 6.8125 -6.453125 6.8125 -6.3125 C 6.8125 -6.28125 6.8125 -6.265625 6.78125 -6.125 L 6.1875 -3.703125 L 3.140625 -3.703125 L 3.734375 -6.046875 C 3.8125 -6.40625 3.84375 -6.5 4.5625 -6.5 C 4.828125 -6.5 4.90625 -6.5 4.90625 -6.703125 C 4.90625 -6.8125 4.796875 -6.8125 4.765625 -6.8125 C 4.484375 -6.8125 3.765625 -6.78125 3.484375 -6.78125 C 3.203125 -6.78125 2.5 -6.8125 2.203125 -6.8125 C 2.125 -6.8125 2.015625 -6.8125 2.015625 -6.609375 C 2.015625 -6.5 2.109375 -6.5 2.296875 -6.5 C 2.3125 -6.5 2.5 -6.5 2.671875 -6.484375 C 2.84375 -6.453125 2.9375 -6.453125 2.9375 -6.3125 C 2.9375 -6.28125 2.9375 -6.25 2.90625 -6.125 L 1.5625 -0.78125 C 1.46875 -0.390625 1.453125 -0.3125 0.65625 -0.3125 C 0.484375 -0.3125 0.390625 -0.3125 0.390625 -0.109375 C 0.390625 0 0.515625 0 0.53125 0 C 0.8125 0 1.515625 -0.03125 1.796875 -0.03125 C 2 -0.03125 2.21875 -0.015625 2.4375 -0.015625 C 2.65625 -0.015625 2.875 0 3.078125 0 C 3.15625 0 3.28125 0 3.28125 -0.203125 C 3.28125 -0.3125 3.1875 -0.3125 3 -0.3125 C 2.625 -0.3125 2.359375 -0.3125 2.359375 -0.484375 C 2.359375 -0.546875 2.375 -0.59375 2.375 -0.65625 L 3.0625 -3.390625 L 6.09375 -3.390625 C 5.6875 -1.734375 5.453125 -0.78125 5.40625 -0.640625 C 5.3125 -0.3125 5.125 -0.3125 4.5 -0.3125 C 4.359375 -0.3125 4.265625 -0.3125 4.265625 -0.109375 C 4.265625 0 4.390625 0 4.40625 0 C 4.6875 0 5.390625 -0.03125 5.671875 -0.03125 C 5.875 -0.03125 6.09375 -0.015625 6.3125 -0.015625 C 6.53125 -0.015625 6.75 0 6.953125 0 C 7.03125 0 7.15625 0 7.15625 -0.203125 C 7.15625 -0.3125 7.0625 -0.3125 6.875 -0.3125 C 6.515625 -0.3125 6.234375 -0.3125 6.234375 -0.484375 C 6.234375 -0.546875 6.25 -0.59375 6.265625 -0.65625 Z M 7.609375 -6.046875 "/>
</symbol>
</g>
</g>
</defs>
<g transform="scale(2.6666666666666665) translate(0, -78.539)">
<g id="embed--9148134396832942257-surface1">
<g style="fill:rgb(0%,0%,0%);fill-opacity:1;">
  <use xlink:href="#embed--9148134396832942257-glyph0-1" x="20.091" y="9.88"/>
</g>
<g style="fill:rgb(0%,0%,0%);fill-opacity:1;">
  <use xlink:href="#embed--9148134396832942257-glyph1-1" x="22.859" y="9.88"/>
</g>
<g style="fill:rgb(0%,0%,0%);fill-opacity:1;">
  <use xlink:href="#embed--9148134396832942257-glyph0-2" x="27.84" y="9.88"/>
</g>
<g style="fill:rgb(0%,0%,0%);fill-opacity:1;">
  <use xlink:href="#embed--9148134396832942257-glyph2-1" x="46.264" y="10.793"/>
</g>
<path style="fill:none;stroke-width:0.398;stroke-linecap:round;stroke-linejoin:round;stroke:rgb(0%,0%,0%);stroke-opacity:1;stroke-miterlimit:10;" d="M 57.34775 6.392906 L 42.277437 6.392906 " transform="matrix(1,0,0,-1,0.996,7.389)"/>
<path style="fill:none;stroke-width:0.398;stroke-linecap:round;stroke-linejoin:round;stroke:rgb(0%,0%,0%);stroke-opacity:1;stroke-miterlimit:10;" d="M 42.277437 6.392906 L 42.277437 -6.39225 " transform="matrix(1,0,0,-1,0.996,7.389)"/>
<path style="fill:none;stroke-width:0.398;stroke-linecap:round;stroke-linejoin:round;stroke:rgb(0%,0%,0%);stroke-opacity:1;stroke-miterlimit:10;" d="M 42.277437 -6.39225 L 57.34775 -6.39225 " transform="matrix(1,0,0,-1,0.996,7.389)"/>
<path style="fill:none;stroke-width:0.398;stroke-linecap:round;stroke-linejoin:round;stroke:rgb(0%,0%,0%);stroke-opacity:1;stroke-miterlimit:10;" d="M 57.34775 -6.39225 L 57.34775 6.392906 " transform="matrix(1,0,0,-1,0.996,7.389)"/>
<path style="fill:none;stroke-width:0.398;stroke-linecap:round;stroke-linejoin:round;stroke:rgb(0%,0%,0%);stroke-opacity:1;stroke-miterlimit:10;" d="M 42.277437 -0.001625 L 30.718844 -0.001625 " transform="matrix(1,0,0,-1,0.996,7.389)"/>
<g style="fill:rgb(0%,0%,0%);fill-opacity:1;">
  <use xlink:href="#embed--9148134396832942257-glyph0-3" x="73.225" y="9.852"/>
</g>
<path style="fill:none;stroke-width:0.398;stroke-linecap:round;stroke-linejoin:round;stroke:rgb(0%,0%,0%);stroke-opacity:1;stroke-miterlimit:10;" d="M 74.718844 -1.357094 L 74.718844 -12.271156 " transform="matrix(1,0,0,-1,0.996,7.389)"/>
<path style="fill:none;stroke-width:0.398;stroke-linecap:round;stroke-linejoin:round;stroke:rgb(0%,0%,0%);stroke-opacity:1;stroke-miterlimit:10;" d="M 73.500094 -0.001625 L 57.34775 -0.001625 " transform="matrix(1,0,0,-1,0.996,7.389)"/>
<path style="fill:none;stroke-width:0.398;stroke-linecap:round;stroke-linejoin:round;stroke:rgb(0%,0%,0%);stroke-opacity:1;stroke-miterlimit:10;" d="M 99.625094 -0.001625 L 75.937594 -0.001625 " transform="matrix(1,0,0,-1,0.996,7.389)"/>
<path style="fill:none;stroke-width:0.398;stroke-linecap:round;stroke-linejoin:round;stroke:rgb(0%,0%,0%);stroke-opacity:1;stroke-miterlimit:10;" d="M 124.531344 -0.001625 L 99.625094 -0.001625 " transform="matrix(1,0,0,-1,0.996,7.389)"/>
<path style="fill:none;stroke-width:0.398;stroke-linecap:round;stroke-linejoin:round;stroke:rgb(0%,0%,0%);stroke-opacity:1;stroke-miterlimit:10;" d="M 149.4415 -0.001625 L 124.531344 -0.001625 " transform="matrix(1,0,0,-1,0.996,7.389)"/>
<g style="fill:rgb(0%,0%,0%);fill-opacity:1;">
  <use xlink:href="#embed--9148134396832942257-glyph0-3" x="172.852" y="9.852"/>
</g>
<path style="fill:none;stroke-width:0.398;stroke-linecap:round;stroke-linejoin:round;stroke:rgb(0%,0%,0%);stroke-opacity:1;stroke-miterlimit:10;" d="M 174.34775 -1.357094 L 174.34775 -59.095375 " transform="matrix(1,0,0,-1,0.996,7.389)"/>
<path style="fill:none;stroke-width:0.398;stroke-linecap:round;stroke-linejoin:round;stroke:rgb(0%,0%,0%);stroke-opacity:1;stroke-miterlimit:10;" d="M 173.129 -0.001625 L 149.4415 -0.001625 " transform="matrix(1,0,0,-1,0.996,7.389)"/>
<path style="fill:none;stroke-width:0.398;stroke-linecap:round;stroke-linejoin:round;stroke:rgb(0%,0%,0%);stroke-opacity:1;stroke-miterlimit:10;" d="M 199.254 -0.001625 L 175.562594 -0.001625 " transform="matrix(1,0,0,-1,0.996,7.389)"/>
<g style="fill:rgb(0%,0%,0%);fill-opacity:1;">
  <use xlink:href="#embed--9148134396832942257-glyph0-1" x="20.091" y="26.235"/>
</g>
<g style="fill:rgb(0%,0%,0%);fill-opacity:1;">
  <use xlink:href="#embed--9148134396832942257-glyph1-1" x="22.859" y="26.235"/>
</g>
<g style="fill:rgb(0%,0%,0%);fill-opacity:1;">
  <use xlink:href="#embed--9148134396832942257-glyph0-2" x="27.84" y="26.235"/>
</g>
<path style="fill:none;stroke-width:0.398;stroke-linecap:round;stroke-linejoin:round;stroke:rgb(0%,0%,0%);stroke-opacity:1;stroke-miterlimit:10;" d="M 49.812594 -16.353187 L 30.718844 -16.353187 " transform="matrix(1,0,0,-1,0.996,7.389)"/>
<path style="fill:none;stroke-width:0.398;stroke-linecap:round;stroke-linejoin:round;stroke:rgb(0%,0%,0%);stroke-opacity:1;stroke-miterlimit:10;" d="M -3.883969 -0.00109375 L 3.885563 -0.00109375 " transform="matrix(1,0,0,-1,75.716,23.745)"/>
<path style="fill:none;stroke-width:0.398;stroke-linecap:round;stroke-linejoin:round;stroke:rgb(0%,0%,0%);stroke-opacity:1;stroke-miterlimit:10;" d="M -0.00115625 -3.883906 L -0.00115625 3.885625 " transform="matrix(1,0,0,-1,75.716,23.745)"/>
<path style="fill:none;stroke-width:0.398;stroke-linecap:round;stroke-linejoin:round;stroke:rgb(0%,0%,0%);stroke-opacity:1;stroke-miterlimit:10;" d="M -0.00115625 3.983281 C -2.200375 3.983281 -3.985531 2.198125 -3.985531 -0.00109375 " transform="matrix(1,0,0,-1,75.716,23.745)"/>
<path style="fill:none;stroke-width:0.398;stroke-linecap:round;stroke-linejoin:round;stroke:rgb(0%,0%,0%);stroke-opacity:1;stroke-miterlimit:10;" d="M -3.985531 -0.00109375 C -3.985531 -2.200312 -2.200375 -3.985469 -0.00115625 -3.985469 " transform="matrix(1,0,0,-1,75.716,23.745)"/>
<path style="fill:none;stroke-width:0.398;stroke-linecap:round;stroke-linejoin:round;stroke:rgb(0%,0%,0%);stroke-opacity:1;stroke-miterlimit:10;" d="M -0.00115625 -3.985469 C 2.198063 -3.985469 3.983219 -2.200312 3.983219 -0.00109375 " transform="matrix(1,0,0,-1,75.716,23.745)"/>
<path style="fill:none;stroke-width:0.398;stroke-linecap:round;stroke-linejoin:round;stroke:rgb(0%,0%,0%);stroke-opacity:1;stroke-miterlimit:10;" d="M 3.983219 -0.00109375 C 3.983219 2.198125 2.198063 3.983281 -0.00115625 3.983281 " transform="matrix(1,0,0,-1,75.716,23.745)"/>
<path style="fill:none;stroke-width:0.398;stroke-linecap:round;stroke-linejoin:round;stroke:rgb(0%,0%,0%);stroke-opacity:1;stroke-miterlimit:10;" d="M 70.636813 -16.353187 L 49.812594 -16.353187 " transform="matrix(1,0,0,-1,0.996,7.389)"/>
<g style="fill:rgb(0%,0%,0%);fill-opacity:1;">
  <use xlink:href="#embed--9148134396832942257-glyph0-3" x="98.132" y="26.207"/>
</g>
<path style="fill:none;stroke-width:0.398;stroke-linecap:round;stroke-linejoin:round;stroke:rgb(0%,0%,0%);stroke-opacity:1;stroke-miterlimit:10;" d="M 99.625094 -17.712562 L 99.625094 -27.216469 " transform="matrix(1,0,0,-1,0.996,7.389)"/>
<path style="fill:none;stroke-width:0.398;stroke-linecap:round;stroke-linejoin:round;stroke:rgb(0%,0%,0%);stroke-opacity:1;stroke-miterlimit:10;" d="M 98.41025 -16.353187 L 78.804781 -16.353187 " transform="matrix(1,0,0,-1,0.996,7.389)"/>
<path style="fill:none;stroke-width:0.398;stroke-linecap:round;stroke-linejoin:round;stroke:rgb(0%,0%,0%);stroke-opacity:1;stroke-miterlimit:10;" d="M 124.531344 -16.353187 L 100.843844 -16.353187 " transform="matrix(1,0,0,-1,0.996,7.389)"/>
<path style="fill:none;stroke-width:0.398;stroke-linecap:round;stroke-linejoin:round;stroke:rgb(0%,0%,0%);stroke-opacity:1;stroke-miterlimit:10;" d="M 149.4415 -16.353187 L 124.531344 -16.353187 " transform="matrix(1,0,0,-1,0.996,7.389)"/>
<path style="fill:none;stroke-width:0.398;stroke-linecap:round;stroke-linejoin:round;stroke:rgb(0%,0%,0%);stroke-opacity:1;stroke-miterlimit:10;" d="M 174.34775 -16.353187 L 149.4415 -16.353187 " transform="matrix(1,0,0,-1,0.996,7.389)"/>
<path style="fill:none;stroke-width:0.398;stroke-linecap:round;stroke-linejoin:round;stroke:rgb(0%,0%,0%);stroke-opacity:1;stroke-miterlimit:10;" d="M 199.254 -16.353187 L 174.34775 -16.353187 " transform="matrix(1,0,0,-1,0.996,7.389)"/>
<g style="fill:rgb(0%,0%,0%);fill-opacity:1;">
  <use xlink:href="#embed--9148134396832942257-glyph0-1" x="20.091" y="41.179"/>
</g>
<g style="fill:rgb(0%,0%,0%);fill-opacity:1;">
  <use xlink:href="#embed--9148134396832942257-glyph1-1" x="22.859" y="41.179"/>
</g>
<g style="fill:rgb(0%,0%,0%);fill-opacity:1;">
  <use xlink:href="#embed--9148134396832942257-glyph0-2" x="27.84" y="41.179"/>
</g>
<path style="fill:none;stroke-width:0.398;stroke-linecap:round;stroke-linejoin:round;stroke:rgb(0%,0%,0%);stroke-opacity:1;stroke-miterlimit:10;" d="M 49.812594 -31.2985 L 30.718844 -31.2985 " transform="matrix(1,0,0,-1,0.996,7.389)"/>
<path style="fill:none;stroke-width:0.398;stroke-linecap:round;stroke-linejoin:round;stroke:rgb(0%,0%,0%);stroke-opacity:1;stroke-miterlimit:10;" d="M 74.718844 -31.2985 L 49.812594 -31.2985 " transform="matrix(1,0,0,-1,0.996,7.389)"/>
<path style="fill:none;stroke-width:0.398;stroke-linecap:round;stroke-linejoin:round;stroke:rgb(0%,0%,0%);stroke-opacity:1;stroke-miterlimit:10;" d="M -3.884719 0.0005 L 3.884813 0.0005 " transform="matrix(1,0,0,-1,100.623,38.688)"/>
<path style="fill:none;stroke-width:0.398;stroke-linecap:round;stroke-linejoin:round;stroke:rgb(0%,0%,0%);stroke-opacity:1;stroke-miterlimit:10;" d="M -0.00190625 -3.886219 L -0.00190625 3.883313 " transform="matrix(1,0,0,-1,100.623,38.688)"/>
<path style="fill:none;stroke-width:0.398;stroke-linecap:round;stroke-linejoin:round;stroke:rgb(0%,0%,0%);stroke-opacity:1;stroke-miterlimit:10;" d="M -0.00190625 3.984875 C -2.197219 3.984875 -3.986281 2.199719 -3.986281 0.0005 " transform="matrix(1,0,0,-1,100.623,38.688)"/>
<path style="fill:none;stroke-width:0.398;stroke-linecap:round;stroke-linejoin:round;stroke:rgb(0%,0%,0%);stroke-opacity:1;stroke-miterlimit:10;" d="M -3.986281 0.0005 C -3.986281 -2.198719 -2.197219 -3.983875 -0.00190625 -3.983875 " transform="matrix(1,0,0,-1,100.623,38.688)"/>
<path style="fill:none;stroke-width:0.398;stroke-linecap:round;stroke-linejoin:round;stroke:rgb(0%,0%,0%);stroke-opacity:1;stroke-miterlimit:10;" d="M -0.00190625 -3.983875 C 2.197313 -3.983875 3.986375 -2.198719 3.986375 0.0005 " transform="matrix(1,0,0,-1,100.623,38.688)"/>
<path style="fill:none;stroke-width:0.398;stroke-linecap:round;stroke-linejoin:round;stroke:rgb(0%,0%,0%);stroke-opacity:1;stroke-miterlimit:10;" d="M 3.986375 0.0005 C 3.986375 2.199719 2.197313 3.984875 -0.00190625 3.984875 " transform="matrix(1,0,0,-1,100.623,38.688)"/>
<path style="fill:none;stroke-width:0.398;stroke-linecap:round;stroke-linejoin:round;stroke:rgb(0%,0%,0%);stroke-opacity:1;stroke-miterlimit:10;" d="M 95.543063 -31.2985 L 74.718844 -31.2985 " transform="matrix(1,0,0,-1,0.996,7.389)"/>
<g style="fill:rgb(0%,0%,0%);fill-opacity:1;">
  <use xlink:href="#embed--9148134396832942257-glyph0-3" x="123.039" y="41.151"/>
</g>
<path style="fill:none;stroke-width:0.398;stroke-linecap:round;stroke-linejoin:round;stroke:rgb(0%,0%,0%);stroke-opacity:1;stroke-miterlimit:10;" d="M 124.531344 -32.653969 L 124.531344 -42.157875 " transform="matrix(1,0,0,-1,0.996,7.389)"/>
<path style="fill:none;stroke-width:0.398;stroke-linecap:round;stroke-linejoin:round;stroke:rgb(0%,0%,0%);stroke-opacity:1;stroke-miterlimit:10;" d="M 123.3165 -31.2985 L 103.711031 -31.2985 " transform="matrix(1,0,0,-1,0.996,7.389)"/>
<path style="fill:none;stroke-width:0.398;stroke-linecap:round;stroke-linejoin:round;stroke:rgb(0%,0%,0%);stroke-opacity:1;stroke-miterlimit:10;" d="M 149.4415 -31.2985 L 125.750094 -31.2985 " transform="matrix(1,0,0,-1,0.996,7.389)"/>
<path style="fill:none;stroke-width:0.398;stroke-linecap:round;stroke-linejoin:round;stroke:rgb(0%,0%,0%);stroke-opacity:1;stroke-miterlimit:10;" d="M 174.34775 -31.2985 L 149.4415 -31.2985 " transform="matrix(1,0,0,-1,0.996,7.389)"/>
<path style="fill:none;stroke-width:0.398;stroke-linecap:round;stroke-linejoin:round;stroke:rgb(0%,0%,0%);stroke-opacity:1;stroke-miterlimit:10;" d="M 199.254 -31.2985 L 174.34775 -31.2985 " transform="matrix(1,0,0,-1,0.996,7.389)"/>
<g style="fill:rgb(0%,0%,0%);fill-opacity:1;">
  <use xlink:href="#embed--9148134396832942257-glyph0-1" x="20.091" y="56.123"/>
</g>
<g style="fill:rgb(0%,0%,0%);fill-opacity:1;">
  <use xlink:href="#embed--9148134396832942257-glyph1-1" x="22.859" y="56.123"/>
</g>
<g style="fill:rgb(0%,0%,0%);fill-opacity:1;">
  <use xlink:href="#embed--9148134396832942257-glyph0-2" x="27.84" y="56.123"/>
</g>
<path style="fill:none;stroke-width:0.398;stroke-linecap:round;stroke-linejoin:round;stroke:rgb(0%,0%,0%);stroke-opacity:1;stroke-miterlimit:10;" d="M 49.812594 -46.243812 L 30.718844 -46.243812 " transform="matrix(1,0,0,-1,0.996,7.389)"/>
<path style="fill:none;stroke-width:0.398;stroke-linecap:round;stroke-linejoin:round;stroke:rgb(0%,0%,0%);stroke-opacity:1;stroke-miterlimit:10;" d="M 74.718844 -46.243812 L 49.812594 -46.243812 " transform="matrix(1,0,0,-1,0.996,7.389)"/>
<path style="fill:none;stroke-width:0.398;stroke-linecap:round;stroke-linejoin:round;stroke:rgb(0%,0%,0%);stroke-opacity:1;stroke-miterlimit:10;" d="M 99.625094 -46.243812 L 74.718844 -46.243812 " transform="matrix(1,0,0,-1,0.996,7.389)"/>
<path style="fill:none;stroke-width:0.398;stroke-linecap:round;stroke-linejoin:round;stroke:rgb(0%,0%,0%);stroke-opacity:1;stroke-miterlimit:10;" d="M -3.884469 -0.0008125 L 3.885063 -0.0008125 " transform="matrix(1,0,0,-1,125.529,53.632)"/>
<path style="fill:none;stroke-width:0.398;stroke-linecap:round;stroke-linejoin:round;stroke:rgb(0%,0%,0%);stroke-opacity:1;stroke-miterlimit:10;" d="M -0.00165625 -3.883625 L -0.00165625 3.885906 " transform="matrix(1,0,0,-1,125.529,53.632)"/>
<path style="fill:none;stroke-width:0.398;stroke-linecap:round;stroke-linejoin:round;stroke:rgb(0%,0%,0%);stroke-opacity:1;stroke-miterlimit:10;" d="M -0.00165625 3.983563 C -2.200875 3.983563 -3.986031 2.198406 -3.986031 -0.0008125 " transform="matrix(1,0,0,-1,125.529,53.632)"/>
<path style="fill:none;stroke-width:0.398;stroke-linecap:round;stroke-linejoin:round;stroke:rgb(0%,0%,0%);stroke-opacity:1;stroke-miterlimit:10;" d="M -3.986031 -0.0008125 C -3.986031 -2.200031 -2.200875 -3.985187 -0.00165625 -3.985187 " transform="matrix(1,0,0,-1,125.529,53.632)"/>
<path style="fill:none;stroke-width:0.398;stroke-linecap:round;stroke-linejoin:round;stroke:rgb(0%,0%,0%);stroke-opacity:1;stroke-miterlimit:10;" d="M -0.00165625 -3.985187 C 2.197563 -3.985187 3.986625 -2.200031 3.986625 -0.0008125 " transform="matrix(1,0,0,-1,125.529,53.632)"/>
<path style="fill:none;stroke-width:0.398;stroke-linecap:round;stroke-linejoin:round;stroke:rgb(0%,0%,0%);stroke-opacity:1;stroke-miterlimit:10;" d="M 3.986625 -0.0008125 C 3.986625 2.198406 2.197563 3.983563 -0.00165625 3.983563 " transform="matrix(1,0,0,-1,125.529,53.632)"/>
<path style="fill:none;stroke-width:0.398;stroke-linecap:round;stroke-linejoin:round;stroke:rgb(0%,0%,0%);stroke-opacity:1;stroke-miterlimit:10;" d="M 120.449313 -46.243812 L 99.625094 -46.243812 " transform="matrix(1,0,0,-1,0.996,7.389)"/>
<g style="fill:rgb(0%,0%,0%);fill-opacity:1;">
  <use xlink:href="#embed--9148134396832942257-glyph0-3" x="147.945" y="56.095"/>
</g>
<path style="fill:none;stroke-width:0.398;stroke-linecap:round;stroke-linejoin:round;stroke:rgb(0%,0%,0%);stroke-opacity:1;stroke-miterlimit:10;" d="M 149.4415 -47.599281 L 149.4415 -59.095375 " transform="matrix(1,0,0,-1,0.996,7.389)"/>
<path style="fill:none;stroke-width:0.398;stroke-linecap:round;stroke-linejoin:round;stroke:rgb(0%,0%,0%);stroke-opacity:1;stroke-miterlimit:10;" d="M 148.22275 -46.243812 L 128.617281 -46.243812 " transform="matrix(1,0,0,-1,0.996,7.389)"/>
<path style="fill:none;stroke-width:0.398;stroke-linecap:round;stroke-linejoin:round;stroke:rgb(0%,0%,0%);stroke-opacity:1;stroke-miterlimit:10;" d="M 174.34775 -46.243812 L 150.656344 -46.243812 " transform="matrix(1,0,0,-1,0.996,7.389)"/>
<path style="fill:none;stroke-width:0.398;stroke-linecap:round;stroke-linejoin:round;stroke:rgb(0%,0%,0%);stroke-opacity:1;stroke-miterlimit:10;" d="M 199.254 -46.243812 L 174.34775 -46.243812 " transform="matrix(1,0,0,-1,0.996,7.389)"/>
<g style="fill:rgb(0%,0%,0%);fill-opacity:1;">
  <use xlink:href="#embed--9148134396832942257-glyph0-1" x="20.091" y="73.06"/>
</g>
<g style="fill:rgb(0%,0%,0%);fill-opacity:1;">
  <use xlink:href="#embed--9148134396832942257-glyph1-1" x="22.859" y="73.06"/>
</g>
<g style="fill:rgb(0%,0%,0%);fill-opacity:1;">
  <use xlink:href="#embed--9148134396832942257-glyph0-2" x="27.84" y="73.06"/>
</g>
<path style="fill:none;stroke-width:0.398;stroke-linecap:round;stroke-linejoin:round;stroke:rgb(0%,0%,0%);stroke-opacity:1;stroke-miterlimit:10;" d="M 49.812594 -63.181312 L 30.718844 -63.181312 " transform="matrix(1,0,0,-1,0.996,7.389)"/>
<path style="fill:none;stroke-width:0.398;stroke-linecap:round;stroke-linejoin:round;stroke:rgb(0%,0%,0%);stroke-opacity:1;stroke-miterlimit:10;" d="M 74.718844 -63.181312 L 49.812594 -63.181312 " transform="matrix(1,0,0,-1,0.996,7.389)"/>
<path style="fill:none;stroke-width:0.398;stroke-linecap:round;stroke-linejoin:round;stroke:rgb(0%,0%,0%);stroke-opacity:1;stroke-miterlimit:10;" d="M 99.625094 -63.181312 L 74.718844 -63.181312 " transform="matrix(1,0,0,-1,0.996,7.389)"/>
<path style="fill:none;stroke-width:0.398;stroke-linecap:round;stroke-linejoin:round;stroke:rgb(0%,0%,0%);stroke-opacity:1;stroke-miterlimit:10;" d="M 124.531344 -63.181312 L 99.625094 -63.181312 " transform="matrix(1,0,0,-1,0.996,7.389)"/>
<path style="fill:none;stroke-width:0.398;stroke-linecap:round;stroke-linejoin:round;stroke:rgb(0%,0%,0%);stroke-opacity:1;stroke-miterlimit:10;" d="M -3.885219 -0.0013125 L 3.884313 -0.0013125 " transform="matrix(1,0,0,-1,150.436,70.569)"/>
<path style="fill:none;stroke-width:0.398;stroke-linecap:round;stroke-linejoin:round;stroke:rgb(0%,0%,0%);stroke-opacity:1;stroke-miterlimit:10;" d="M 0.0015 -3.884125 L 0.0015 3.885406 " transform="matrix(1,0,0,-1,150.436,70.569)"/>
<path style="fill:none;stroke-width:0.398;stroke-linecap:round;stroke-linejoin:round;stroke:rgb(0%,0%,0%);stroke-opacity:1;stroke-miterlimit:10;" d="M 0.0015 3.983063 C -2.197719 3.983063 -3.986781 2.197906 -3.986781 -0.0013125 " transform="matrix(1,0,0,-1,150.436,70.569)"/>
<path style="fill:none;stroke-width:0.398;stroke-linecap:round;stroke-linejoin:round;stroke:rgb(0%,0%,0%);stroke-opacity:1;stroke-miterlimit:10;" d="M -3.986781 -0.0013125 C -3.986781 -2.200531 -2.197719 -3.985687 0.0015 -3.985687 " transform="matrix(1,0,0,-1,150.436,70.569)"/>
<path style="fill:none;stroke-width:0.398;stroke-linecap:round;stroke-linejoin:round;stroke:rgb(0%,0%,0%);stroke-opacity:1;stroke-miterlimit:10;" d="M 0.0015 -3.985687 C 2.200719 -3.985687 3.985875 -2.200531 3.985875 -0.0013125 " transform="matrix(1,0,0,-1,150.436,70.569)"/>
<path style="fill:none;stroke-width:0.398;stroke-linecap:round;stroke-linejoin:round;stroke:rgb(0%,0%,0%);stroke-opacity:1;stroke-miterlimit:10;" d="M 3.985875 -0.0013125 C 3.985875 2.197906 2.200719 3.983063 0.0015 3.983063 " transform="matrix(1,0,0,-1,150.436,70.569)"/>
<path style="fill:none;stroke-width:0.398;stroke-linecap:round;stroke-linejoin:round;stroke:rgb(0%,0%,0%);stroke-opacity:1;stroke-miterlimit:10;" d="M 145.355563 -63.181312 L 124.531344 -63.181312 " transform="matrix(1,0,0,-1,0.996,7.389)"/>
<path style="fill:none;stroke-width:0.398;stroke-linecap:round;stroke-linejoin:round;stroke:rgb(0%,0%,0%);stroke-opacity:1;stroke-miterlimit:10;" d="M -3.884969 -0.0013125 L 3.884563 -0.0013125 " transform="matrix(1,0,0,-1,175.342,70.569)"/>
<path style="fill:none;stroke-width:0.398;stroke-linecap:round;stroke-linejoin:round;stroke:rgb(0%,0%,0%);stroke-opacity:1;stroke-miterlimit:10;" d="M 0.00175 -3.884125 L 0.00175 3.885406 " transform="matrix(1,0,0,-1,175.342,70.569)"/>
<path style="fill:none;stroke-width:0.398;stroke-linecap:round;stroke-linejoin:round;stroke:rgb(0%,0%,0%);stroke-opacity:1;stroke-miterlimit:10;" d="M 0.00175 3.983063 C -2.197469 3.983063 -3.986531 2.197906 -3.986531 -0.0013125 " transform="matrix(1,0,0,-1,175.342,70.569)"/>
<path style="fill:none;stroke-width:0.398;stroke-linecap:round;stroke-linejoin:round;stroke:rgb(0%,0%,0%);stroke-opacity:1;stroke-miterlimit:10;" d="M -3.986531 -0.0013125 C -3.986531 -2.200531 -2.197469 -3.985687 0.00175 -3.985687 " transform="matrix(1,0,0,-1,175.342,70.569)"/>
<path style="fill:none;stroke-width:0.398;stroke-linecap:round;stroke-linejoin:round;stroke:rgb(0%,0%,0%);stroke-opacity:1;stroke-miterlimit:10;" d="M 0.00175 -3.985687 C 2.197063 -3.985687 3.986125 -2.200531 3.986125 -0.0013125 " transform="matrix(1,0,0,-1,175.342,70.569)"/>
<path style="fill:none;stroke-width:0.398;stroke-linecap:round;stroke-linejoin:round;stroke:rgb(0%,0%,0%);stroke-opacity:1;stroke-miterlimit:10;" d="M 3.986125 -0.0013125 C 3.986125 2.197906 2.197063 3.983063 0.00175 3.983063 " transform="matrix(1,0,0,-1,175.342,70.569)"/>
<path style="fill:none;stroke-width:0.398;stroke-linecap:round;stroke-linejoin:round;stroke:rgb(0%,0%,0%);stroke-opacity:1;stroke-miterlimit:10;" d="M 170.261813 -63.181312 L 153.523531 -63.181312 " transform="matrix(1,0,0,-1,0.996,7.389)"/>
<path style="fill:none;stroke-width:0.398;stroke-linecap:round;stroke-linejoin:round;stroke:rgb(0%,0%,0%);stroke-opacity:1;stroke-miterlimit:10;" d="M -7.752906 -3.208344 C -3.506812 1.03775 3.368188 1.069 7.653344 -3.110687 " transform="matrix(1,0,0,-1,200.249,70.569)"/>
<path style="fill:none;stroke-width:0.398;stroke-linecap:round;stroke-linejoin:round;stroke:rgb(0%,0%,0%);stroke-opacity:1;stroke-miterlimit:10;" d="M 0.001 -3.985687 L 4.981469 4.979156 " transform="matrix(1,0,0,-1,200.249,70.569)"/>
<path style="fill:none;stroke-width:0.398;stroke-linecap:round;stroke-linejoin:round;stroke:rgb(0%,0%,0%);stroke-opacity:1;stroke-miterlimit:10;" d="M 208.218844 -56.20475 L 190.28525 -56.20475 " transform="matrix(1,0,0,-1,0.996,7.389)"/>
<path style="fill:none;stroke-width:0.398;stroke-linecap:round;stroke-linejoin:round;stroke:rgb(0%,0%,0%);stroke-opacity:1;stroke-miterlimit:10;" d="M 190.28525 -56.20475 L 190.28525 -70.153969 " transform="matrix(1,0,0,-1,0.996,7.389)"/>
<path style="fill:none;stroke-width:0.398;stroke-linecap:round;stroke-linejoin:round;stroke:rgb(0%,0%,0%);stroke-opacity:1;stroke-miterlimit:10;" d="M 190.28525 -70.153969 L 208.218844 -70.153969 " transform="matrix(1,0,0,-1,0.996,7.389)"/>
<path style="fill:none;stroke-width:0.398;stroke-linecap:round;stroke-linejoin:round;stroke:rgb(0%,0%,0%);stroke-opacity:1;stroke-miterlimit:10;" d="M 208.218844 -70.153969 L 208.218844 -56.20475 " transform="matrix(1,0,0,-1,0.996,7.389)"/>
<path style="fill:none;stroke-width:0.398;stroke-linecap:round;stroke-linejoin:round;stroke:rgb(0%,0%,0%);stroke-opacity:1;stroke-miterlimit:10;" d="M 190.28525 -63.181312 L 178.429781 -63.181312 " transform="matrix(1,0,0,-1,0.996,7.389)"/>
</g>
</g>
</svg>