<?xml version="1.0" encoding="UTF-8"?>
<svg xmlns="http://www.w3.org/2000/svg" xmlns:xlink="http://www.w3.org/1999/xlink"
     width="427.73066666666665" height="174.38400000000001" viewBox="0 -174.38400000000001 427.73066666666665 174.38400000000001">
<defs>
<g id="d0">
<g>
<symbol overflow="visible" id="embed-4760817498961565444-glyph0-0">
<path style="stroke:none;" d=""/>
</symbol>
<symbol overflow="visible" id="embed-4760817498961565444-glyph0-1">
<path style="stroke:none;" d="M 4.421875 -2.5 C 4.421875 -3.5625 3.53125 -4.421875 2.5 -4.421875 C 1.421875 -4.421875 0.546875 -3.53125 0.546875 -2.5 C 0.546875 -1.4375 1.421875 -0.5625 2.5 -0.5625 C 3.53125 -0.5625 4.421875 -1.421875 4.421875 -2.5 Z M 4.421875 -2.5 "/>
</symbol>
<symbol overflow="visible" id="embed-4760817498961565444-glyph0-2">
<path style="stroke:none;" d="M 1.578125 -7.125 C 1.578125 -7.296875 1.578125 -7.484375 1.390625 -7.484375 C 1.1875 -7.484375 1.1875 -7.296875 1.1875 -7.125 L 1.1875 2.140625 C 1.1875 2.3125 1.1875 2.5 1.390625 2.5 C 1.578125 2.5 1.578125 2.3125 1.578125 2.140625 Z M 1.578125 -7.125 "/>
</symbol>
<symbol overflow="visible" id="embed-4760817498961565444-glyph0-3">
<path style="stroke:none;" d="M 2.71875 -2.328125 C 2.765625 -2.4375 2.765625 -2.46875 2.765625 -2.5 C 2.765625 -2.515625 2.765625 -2.546875 2.71875 -2.65625 L 0.984375 -7.25 C 0.921875 -7.421875 0.859375 -7.484375 0.75 -7.484375 C 0.640625 -7.484375 0.546875 -7.390625 0.546875 -7.28125 C 0.546875 -7.25 0.546875 -7.234375 0.59375 -7.125 L 2.359375 -2.5 L 0.59375 2.109375 C 0.546875 2.21875 0.546875 2.25 0.546875 2.296875 C 0.546875 2.40625 0.640625 2.5 0.75 2.5 C 0.875 2.5 0.921875 2.390625 0.953125 2.296875 Z M 2.71875 -2.328125 "/>
</symbol>
<symbol overflow="visible" id="embed-4760817498961565444-glyph1-0">
<path style="stroke:none;" d=""/>
</symbol>
<symbol overflow="visible" id="embed-4760817498961565444-glyph1-1">
<path style="stroke:none;" d="M 4.578125 -3.1875 C 4.578125 -3.984375 4.53125 -4.78125 4.1875 -5.515625 C 3.734375 -6.484375 2.90625 -6.640625 2.5 -6.640625 C 1.890625 -6.640625 1.171875 -6.375 0.75 -5.453125 C 0.4375 -4.765625 0.390625 -3.984375 0.390625 -3.1875 C 0.390625 -2.4375 0.421875 -1.546875 0.84375 -0.78125 C 1.265625 0.015625 2 0.21875 2.484375 0.21875 C 3.015625 0.21875 3.78125 0.015625 4.21875 -0.9375 C 4.53125 -1.625 4.578125 -2.40625 4.578125 -3.1875 Z M 2.484375 0 C 2.09375 0 1.5 -0.25 1.328125 -1.203125 C 1.21875 -1.796875 1.21875 -2.71875 1.21875 -3.3125 C 1.21875 -3.953125 1.21875 -4.609375 1.296875 -5.140625 C 1.484375 -6.328125 2.234375 -6.421875 2.484375 -6.421875 C 2.8125 -6.421875 3.46875 -6.234375 3.65625 -5.25 C 3.765625 -4.6875 3.765625 -3.9375 3.765625 -3.3125 C 3.765625 -2.5625 3.765625 -1.890625 3.65625 -1.25 C 3.5 -0.296875 2.9375 0 2.484375 0 Z M 2.484375 0 "/>
</symbol>
</g>
</g>
</defs>
<g transform="scale(2.6666666666666665) translate(0, -65.394)">
<g id="embed-4760817498961565444-surface1">
<g style="fill:rgb(0%,0%,0%);fill-opacity:1;">
  <use xlink:href="#embed-4760817498961565444-glyph0-1" x="48.319" y="4.539"/>
</g>
<path style="fill:none;stroke-width:0.398;stroke-linecap:round;stroke-linejoin:round;stroke:rgb(0%,0%,0%);stroke-opacity:1;stroke-miterlimit:10;" d="M 49.812594 -1.357594 L 49.812594 -51.263844 " transform="matrix(1,0,0,-1,0.996,2.076)"/>
<path style="fill:none;stroke-width:0.398;stroke-linecap:round;stroke-linejoin:round;stroke:rgb(0%,0%,0%);stroke-opacity:1;stroke-miterlimit:10;" d="M 48.59775 0.00178125 L 24.906344 0.00178125 " transform="matrix(1,0,0,-1,0.996,2.076)"/>
<path style="fill:none;stroke-width:0.398;stroke-linecap:round;stroke-linejoin:round;stroke:rgb(0%,0%,0%);stroke-opacity:1;stroke-miterlimit:10;" d="M 74.718844 0.00178125 L 51.031344 0.00178125 " transform="matrix(1,0,0,-1,0.996,2.076)"/>
<path style="fill:none;stroke-width:0.398;stroke-linecap:round;stroke-linejoin:round;stroke:rgb(0%,0%,0%);stroke-opacity:1;stroke-miterlimit:10;" d="M 99.625094 0.00178125 L 74.718844 0.00178125 " transform="matrix(1,0,0,-1,0.996,2.076)"/>
<path style="fill:none;stroke-width:0.398;stroke-linecap:round;stroke-linejoin:round;stroke:rgb(0%,0%,0%);stroke-opacity:1;stroke-miterlimit:10;" d="M 124.531344 0.00178125 L 99.625094 0.00178125 " transform="matrix(1,0,0,-1,0.996,2.076)"/>
<path style="fill:none;stroke-width:0.398;stroke-linecap:round;stroke-linejoin:round;stroke:rgb(0%,0%,0%);stroke-opacity:1;stroke-miterlimit:10;" d="M 149.4415 0.00178125 L 124.531344 0.00178125 " transform="matrix(1,0,0,-1,0.996,2.076)"/>
<path style="fill:none;stroke-width:0.398;stroke-linecap:round;stroke-linejoin:round;stroke:rgb(0%,0%,0%);stroke-opacity:1;stroke-miterlimit:10;" d="M 49.812594 -7.416187 L 24.906344 -7.416187 " transform="matrix(1,0,0,-1,0.996,2.076)"/>
<g style="fill:rgb(0%,0%,0%);fill-opacity:1;">
  <use xlink:href="#embed-4760817498961565444-glyph0-1" x="73.225" y="11.955"/>
</g>
<path style="fill:none;stroke-width:0.398;stroke-linecap:round;stroke-linejoin:round;stroke:rgb(0%,0%,0%);stroke-opacity:1;stroke-miterlimit:10;" d="M 74.718844 -8.771656 L 74.718844 -51.263844 " transform="matrix(1,0,0,-1,0.996,2.076)"/>
<path style="fill:none;stroke-width:0.398;stroke-linecap:round;stroke-linejoin:round;stroke:rgb(0%,0%,0%);stroke-opacity:1;stroke-miterlimit:10;" d="M 73.500094 -7.416187 L 49.812594 -7.416187 " transform="matrix(1,0,0,-1,0.996,2.076)"/>
<path style="fill:none;stroke-width:0.398;stroke-linecap:round;stroke-linejoin:round;stroke:rgb(0%,0%,0%);stroke-opacity:1;stroke-miterlimit:10;" d="M 99.625094 -7.416187 L 75.937594 -7.416187 " transform="matrix(1,0,0,-1,0.996,2.076)"/>
<path style="fill:none;stroke-width:0.398;stroke-linecap:round;stroke-linejoin:round;stroke:rgb(0%,0%,0%);stroke-opacity:1;stroke-miterlimit:10;" d="M 124.531344 -7.416187 L 99.625094 -7.416187 " transform="matrix(1,0,0,-1,0.996,2.076)"/>
<path style="fill:none;stroke-width:0.398;stroke-linecap:round;stroke-linejoin:round;stroke:rgb(0%,0%,0%);stroke-opacity:1;stroke-miterlimit:10;" d="M 149.4415 -7.416187 L 124.531344 -7.416187 " transform="matrix(1,0,0,-1,0.996,2.076)"/>
<path style="fill:none;stroke-width:0.398;stroke-linecap:round;stroke-linejoin:round;stroke:rgb(0%,0%,0%);stroke-opacity:1;stroke-miterlimit:10;" d="M 49.812594 -13.615406 L 24.906344 -13.615406 " transform="matrix(1,0,0,-1,0.996,2.076)"/>
<path style="fill:none;stroke-width:0.398;stroke-linecap:round;stroke-linejoin:round;stroke:rgb(0%,0%,0%);stroke-opacity:1;stroke-miterlimit:10;" d="M 74.718844 -13.615406 L 49.812594 -13.615406 " transform="matrix(1,0,0,-1,0.996,2.076)"/>
<path style="fill:none;stroke-width:0.398;stroke-linecap:round;stroke-linejoin:round;stroke:rgb(0%,0%,0%);stroke-opacity:1;stroke-miterlimit:10;" d="M 99.625094 -13.615406 L 74.718844 -13.615406 " transform="matrix(1,0,0,-1,0.996,2.076)"/>
<path style="fill:none;stroke-width:0.398;stroke-linecap:round;stroke-linejoin:round;stroke:rgb(0%,0%,0%);stroke-opacity:1;stroke-miterlimit:10;" d="M 124.531344 -13.615406 L 99.625094 -13.615406 " transform="matrix(1,0,0,-1,0.996,2.076)"/>
<path style="fill:none;stroke-width:0.398;stroke-linecap:round;stroke-linejoin:round;stroke:rgb(0%,0%,0%);stroke-opacity:1;stroke-miterlimit:10;" d="M 149.4415 -13.615406 L 124.531344 -13.615406 " transform="matrix(1,0,0,-1,0.996,2.076)"/>
<path style="fill:none;stroke-width:0.398;stroke-linecap:round;stroke-linejoin:round;stroke:rgb(0%,0%,0%);stroke-opacity:1;stroke-miterlimit:10;" d="M 49.812594 -19.814625 L 24.906344 -19.814625 " transform="matrix(1,0,0,-1,0.996,2.076)"/>
<path style="fill:none;stroke-width:0.398;stroke-linecap:round;stroke-linejoin:round;stroke:rgb(0%,0%,0%);stroke-opacity:1;stroke-miterlimit:10;" d="M 74.718844 -19.814625 L 49.812594 -19.814625 " transform="matrix(1,0,0,-1,0.996,2.076)"/>
<g style="fill:rgb(0%,0%,0%);fill-opacity:1;">
  <use xlink:href="#embed-4760817498961565444-glyph0-1" x="98.132" y="24.353"/>
</g>
<path style="fill:none;stroke-width:0.398;stroke-linecap:round;stroke-linejoin:round;stroke:rgb(0%,0%,0%);stroke-opacity:1;stroke-miterlimit:10;" d="M 99.625094 -21.170094 L 99.625094 -51.263844 " transform="matrix(1,0,0,-1,0.996,2.076)"/>
<path style="fill:none;stroke-width:0.398;stroke-linecap:round;stroke-linejoin:round;stroke:rgb(0%,0%,0%);stroke-opacity:1;stroke-miterlimit:10;" d="M 98.41025 -19.814625 L 74.718844 -19.814625 " transform="matrix(1,0,0,-1,0.996,2.076)"/>
<path style="fill:none;stroke-width:0.398;stroke-linecap:round;stroke-linejoin:round;stroke:rgb(0%,0%,0%);stroke-opacity:1;stroke-miterlimit:10;" d="M 124.531344 -19.814625 L 100.843844 -19.814625 " transform="matrix(1,0,0,-1,0.996,2.076)"/>
<path style="fill:none;stroke-width:0.398;stroke-linecap:round;stroke-linejoin:round;stroke:rgb(0%,0%,0%);stroke-opacity:1;stroke-miterlimit:10;" d="M 149.4415 -19.814625 L 124.531344 -19.814625 " transform="matrix(1,0,0,-1,0.996,2.076)"/>
<path style="fill:none;stroke-width:0.398;stroke-linecap:round;stroke-linejoin:round;stroke:rgb(0%,0%,0%);stroke-opacity:1;stroke-miterlimit:10;" d="M 49.812594 -26.013844 L 24.906344 -26.013844 " transform="matrix(1,0,0,-1,0.996,2.076)"/>
<path style="fill:none;stroke-width:0.398;stroke-linecap:round;stroke-linejoin:round;stroke:rgb(0%,0%,0%);stroke-opacity:1;stroke-miterlimit:10;" d="M 74.718844 -26.013844 L 49.812594 -26.013844 " transform="matrix(1,0,0,-1,0.996,2.076)"/>
<path style="fill:none;stroke-width:0.398;stroke-linecap:round;stroke-linejoin:round;stroke:rgb(0%,0%,0%);stroke-opacity:1;stroke-miterlimit:10;" d="M 99.625094 -26.013844 L 74.718844 -26.013844 " transform="matrix(1,0,0,-1,0.996,2.076)"/>
<path style="fill:none;stroke-width:0.398;stroke-linecap:round;stroke-linejoin:round;stroke:rgb(0%,0%,0%);stroke-opacity:1;stroke-miterlimit:10;" d="M 124.531344 -26.013844 L 99.625094 -26.013844 " transform="matrix(1,0,0,-1,0.996,2.076)"/>
<path style="fill:none;stroke-width:0.398;stroke-linecap:round;stroke-linejoin:round;stroke:rgb(0%,0%,0%);stroke-opacity:1;stroke-miterlimit:10;" d="M 149.4415 -26.013844 L 124.531344 -26.013844 " transform="matrix(1,0,0,-1,0.996,2.076)"/>
<path style="fill:none;stroke-width:0.398;stroke-linecap:round;stroke-linejoin:round;stroke:rgb(0%,0%,0%);stroke-opacity:1;stroke-miterlimit:10;" d="M 49.812594 -30.994312 L 24.906344 -30.994312 " transform="matrix(1,0,0,-1,0.996,2.076)"/>
<path style="fill:none;stroke-width:0.398;stroke-linecap:round;stroke-linejoin:round;stroke:rgb(0%,0%,0%);stroke-opacity:1;stroke-miterlimit:10;" d="M 74.718844 -30.994312 L 49.812594 -30.994312 " transform="matrix(1,0,0,-1,0.996,2.076)"/>
<path style="fill:none;stroke-width:0.398;stroke-linecap:round;stroke-linejoin:round;stroke:rgb(0%,0%,0%);stroke-opacity:1;stroke-miterlimit:10;" d="M 99.625094 -30.994312 L 74.718844 -30.994312 " transform="matrix(1,0,0,-1,0.996,2.076)"/>
<path style="fill:none;stroke-width:0.398;stroke-linecap:round;stroke-linejoin:round;stroke:rgb(0%,0%,0%);stroke-opacity:1;stroke-miterlimit:10;" d="M 124.531344 -30.994312 L 99.625094 -30.994312 " transform="matrix(1,0,0,-1,0.996,2.076)"/>
<path style="fill:none;stroke-width:0.398;stroke-linecap:round;stroke-linejoin:round;stroke:rgb(0%,0%,0%);stroke-opacity:1;stroke-miterlimit:10;" d="M 149.4415 -30.994312 L 124.531344 -30.994312 " transform="matrix(1,0,0,-1,0.996,2.076)"/>
<path style="fill:none;stroke-width:0.398;stroke-linecap:round;stroke-linejoin:round;stroke:rgb(0%,0%,0%);stroke-opacity:1;stroke-miterlimit:10;" d="M 49.812594 -37.193531 L 24.906344 -37.193531 " transform="matrix(1,0,0,-1,0.996,2.076)"/>
<path style="fill:none;stroke-width:0.398;stroke-linecap:round;stroke-linejoin:round;stroke:rgb(0%,0%,0%);stroke-opacity:1;stroke-miterlimit:10;" d="M 74.718844 -37.193531 L 49.812594 -37.193531 " transform="matrix(1,0,0,-1,0.996,2.076)"/>
<path style="fill:none;stroke-width:0.398;stroke-linecap:round;stroke-linejoin:round;stroke:rgb(0%,0%,0%);stroke-opacity:1;stroke-miterlimit:10;" d="M 99.625094 -37.193531 L 74.718844 -37.193531 " transform="matrix(1,0,0,-1,0.996,2.076)"/>
<g style="fill:rgb(0%,0%,0%);fill-opacity:1;">
  <use xlink:href="#embed-4760817498961565444-glyph0-1" x="123.039" y="41.733"/>
</g>
<path style="fill:none;stroke-width:0.398;stroke-linecap:round;stroke-linejoin:round;stroke:rgb(0%,0%,0%);stroke-opacity:1;stroke-miterlimit:10;" d="M 124.531344 -38.549 L 124.531344 -51.263844 " transform="matrix(1,0,0,-1,0.996,2.076)"/>
<path style="fill:none;stroke-width:0.398;stroke-linecap:round;stroke-linejoin:round;stroke:rgb(0%,0%,0%);stroke-opacity:1;stroke-miterlimit:10;" d="M 123.3165 -37.193531 L 99.625094 -37.193531 " transform="matrix(1,0,0,-1,0.996,2.076)"/>
<path style="fill:none;stroke-width:0.398;stroke-linecap:round;stroke-linejoin:round;stroke:rgb(0%,0%,0%);stroke-opacity:1;stroke-miterlimit:10;" d="M 149.4415 -37.193531 L 125.750094 -37.193531 " transform="matrix(1,0,0,-1,0.996,2.076)"/>
<path style="fill:none;stroke-width:0.398;stroke-linecap:round;stroke-linejoin:round;stroke:rgb(0%,0%,0%);stroke-opacity:1;stroke-miterlimit:10;" d="M 49.812594 -43.39275 L 24.906344 -43.39275 " transform="matrix(1,0,0,-1,0.996,2.076)"/>
<path style="fill:none;stroke-width:0.398;stroke-linecap:round;stroke-linejoin:round;stroke:rgb(0%,0%,0%);stroke-opacity:1;stroke-miterlimit:10;" d="M 74.718844 -43.39275 L 49.812594 -43.39275 " transform="matrix(1,0,0,-1,0.996,2.076)"/>
<path style="fill:none;stroke-width:0.398;stroke-linecap:round;stroke-linejoin:round;stroke:rgb(0%,0%,0%);stroke-opacity:1;stroke-miterlimit:10;" d="M 99.625094 -43.39275 L 74.718844 -43.39275 " transform="matrix(1,0,0,-1,0.996,2.076)"/>
<path style="fill:none;stroke-width:0.398;stroke-linecap:round;stroke-linejoin:round;stroke:rgb(0%,0%,0%);stroke-opacity:1;stroke-miterlimit:10;" d="M 124.531344 -43.39275 L 99.625094 -43.39275 " transform="matrix(1,0,0,-1,0.996,2.076)"/>
<path style="fill:none;stroke-width:0.398;stroke-linecap:round;stroke-linejoin:round;stroke:rgb(0%,0%,0%);stroke-opacity:1;stroke-miterlimit:10;" d="M 149.4415 -43.39275 L 124.531344 -43.39275 " transform="matrix(1,0,0,-1,0.996,2.076)"/>
<g style="fill:rgb(0%,0%,0%);fill-opacity:1;">
  <use xlink:href="#embed-4760817498961565444-glyph0-2" x="20.091" y="59.915"/>
</g>
<g style="fill:rgb(0%,0%,0%);fill-opacity:1;">
  <use xlink:href="#embed-4760817498961565444-glyph1-1" x="22.859" y="59.915"/>
</g>
<g style="fill:rgb(0%,0%,0%);fill-opacity:1;">
  <use xlink:href="#embed-4760817498961565444-glyph0-3" x="27.84" y="59.915"/>
</g>
<path style="fill:none;stroke-width:0.398;stroke-linecap:round;stroke-linejoin:round;stroke:rgb(0%,0%,0%);stroke-opacity:1;stroke-miterlimit:10;" d="M -3.883219 -0.00178125 L 3.886313 -0.00178125 " transform="matrix(1,0,0,-1,50.809,57.424)"/>
<path style="fill:none;stroke-width:0.398;stroke-linecap:round;stroke-linejoin:round;stroke:rgb(0%,0%,0%);stroke-opacity:1;stroke-miterlimit:10;" d="M -0.00040625 -3.884594 L -0.00040625 3.884938 " transform="matrix(1,0,0,-1,50.809,57.424)"/>
<path style="fill:none;stroke-width:0.398;stroke-linecap:round;stroke-linejoin:round;stroke:rgb(0%,0%,0%);stroke-opacity:1;stroke-miterlimit:10;" d="M -0.00040625 3.9865 C -2.199625 3.9865 -3.984781 2.197438 -3.984781 -0.00178125 " transform="matrix(1,0,0,-1,50.809,57.424)"/>
<path style="fill:none;stroke-width:0.398;stroke-linecap:round;stroke-linejoin:round;stroke:rgb(0%,0%,0%);stroke-opacity:1;stroke-miterlimit:10;" d="M -3.984781 -0.00178125 C -3.984781 -2.197094 -2.199625 -3.986156 -0.00040625 -3.986156 " transform="matrix(1,0,0,-1,50.809,57.424)"/>
<path style="fill:none;stroke-width:0.398;stroke-linecap:round;stroke-linejoin:round;stroke:rgb(0%,0%,0%);stroke-opacity:1;stroke-miterlimit:10;" d="M -0.00040625 -3.986156 C 2.198813 -3.986156 3.983969 -2.197094 3.983969 -0.00178125 " transform="matrix(1,0,0,-1,50.809,57.424)"/>
<path style="fill:none;stroke-width:0.398;stroke-linecap:round;stroke-linejoin:round;stroke:rgb(0%,0%,0%);stroke-opacity:1;stroke-miterlimit:10;" d="M 3.983969 -0.00178125 C 3.983969 2.197438 2.198813 3.9865 -0.00040625 3.9865 " transform="matrix(1,0,0,-1,50.809,57.424)"/>
<path style="fill:none;stroke-width:0.398;stroke-linecap:round;stroke-linejoin:round;stroke:rgb(0%,0%,0%);stroke-opacity:1;stroke-miterlimit:10;" d="M 45.730562 -55.349781 L 30.718844 -55.349781 " transform="matrix(1,0,0,-1,0.996,2.076)"/>
<path style="fill:none;stroke-width:0.398;stroke-linecap:round;stroke-linejoin:round;stroke:rgb(0%,0%,0%);stroke-opacity:1;stroke-miterlimit:10;" d="M -3.883969 -0.00178125 L 3.885562 -0.00178125 " transform="matrix(1,0,0,-1,75.716,57.424)"/>
<path style="fill:none;stroke-width:0.398;stroke-linecap:round;stroke-linejoin:round;stroke:rgb(0%,0%,0%);stroke-opacity:1;stroke-miterlimit:10;" d="M -0.00115625 -3.884594 L -0.00115625 3.884938 " transform="matrix(1,0,0,-1,75.716,57.424)"/>
<path style="fill:none;stroke-width:0.398;stroke-linecap:round;stroke-linejoin:round;stroke:rgb(0%,0%,0%);stroke-opacity:1;stroke-miterlimit:10;" d="M -0.00115625 3.9865 C -2.200375 3.9865 -3.985531 2.197438 -3.985531 -0.00178125 " transform="matrix(1,0,0,-1,75.716,57.424)"/>
<path style="fill:none;stroke-width:0.398;stroke-linecap:round;stroke-linejoin:round;stroke:rgb(0%,0%,0%);stroke-opacity:1;stroke-miterlimit:10;" d="M -3.985531 -0.00178125 C -3.985531 -2.197094 -2.200375 -3.986156 -0.00115625 -3.986156 " transform="matrix(1,0,0,-1,75.716,57.424)"/>
<path style="fill:none;stroke-width:0.398;stroke-linecap:round;stroke-linejoin:round;stroke:rgb(0%,0%,0%);stroke-opacity:1;stroke-miterlimit:10;" d="M -0.00115625 -3.986156 C 2.198062 -3.986156 3.983219 -2.197094 3.983219 -0.00178125 " transform="matrix(1,0,0,-1,75.716,57.424)"/>
<path style="fill:none;stroke-width:0.398;stroke-linecap:round;stroke-linejoin:round;stroke:rgb(0%,0%,0%);stroke-opacity:1;stroke-miterlimit:10;" d="M 3.983219 -0.00178125 C 3.983219 2.197438 2.198062 3.9865 -0.00115625 3.9865 " transform="matrix(1,0,0,-1,75.716,57.424)"/>
<path style="fill:none;stroke-width:0.398;stroke-linecap:round;stroke-linejoin:round;stroke:rgb(0%,0%,0%);stroke-opacity:1;stroke-miterlimit:10;" d="M 70.636812 -55.349781 L 53.898531 -55.349781 " transform="matrix(1,0,0,-1,0.996,2.076)"/>
<path style="fill:none;stroke-width:0.398;stroke-linecap:round;stroke-linejoin:round;stroke:rgb(0%,0%,0%);stroke-opacity:1;stroke-miterlimit:10;" d="M -3.884719 -0.00178125 L 3.884812 -0.00178125 " transform="matrix(1,0,0,-1,100.623,57.424)"/>
<path style="fill:none;stroke-width:0.398;stroke-linecap:round;stroke-linejoin:round;stroke:rgb(0%,0%,0%);stroke-opacity:1;stroke-miterlimit:10;" d="M -0.00190625 -3.884594 L -0.00190625 3.884938 " transform="matrix(1,0,0,-1,100.623,57.424)"/>
<path style="fill:none;stroke-width:0.398;stroke-linecap:round;stroke-linejoin:round;stroke:rgb(0%,0%,0%);stroke-opacity:1;stroke-miterlimit:10;" d="M -0.00190625 3.9865 C -2.197219 3.9865 -3.986281 2.197438 -3.986281 -0.00178125 " transform="matrix(1,0,0,-1,100.623,57.424)"/>
<path style="fill:none;stroke-width:0.398;stroke-linecap:round;stroke-linejoin:round;stroke:rgb(0%,0%,0%);stroke-opacity:1;stroke-miterlimit:10;" d="M -3.986281 -0.00178125 C -3.986281 -2.197094 -2.197219 -3.986156 -0.00190625 -3.986156 " transform="matrix(1,0,0,-1,100.623,57.424)"/>
<path style="fill:none;stroke-width:0.398;stroke-linecap:round;stroke-linejoin:round;stroke:rgb(0%,0%,0%);stroke-opacity:1;stroke-miterlimit:10;" d="M -0.00190625 -3.986156 C 2.197312 -3.986156 3.986375 -2.197094 3.986375 -0.00178125 " transform="matrix(1,0,0,-1,100.623,57.424)"/>
<path style="fill:none;stroke-width:0.398;stroke-linecap:round;stroke-linejoin:round;stroke:rgb(0%,0%,0%);stroke-opacity:1;stroke-miterlimit:10;" d="M 3.986375 -0.00178125 C 3.986375 2.197438 2.197312 3.9865 -0.00190625 3.9865 " transform="matrix(1,0,0,-1,100.623,57.424)"/>
<path style="fill:none;stroke-width:0.398;stroke-linecap:round;stroke-linejoin:round;stroke:rgb(0%,0%,0%);stroke-opacity:1;stroke-miterlimit:10;" d="M 95.543062 -55.349781 L 78.804781 -55.349781 " transform="matrix(1,0,0,-1,0.996,2.076)"/>
<path style="fill:none;stroke-width:0.398;stroke-linecap:round;stroke-linejoin:round;stroke:rgb(0%,0%,0%);stroke-opacity:1;stroke-miterlimit:10;" d="M -3.884469 -0.00178125 L 3.885062 -0.00178125 " transform="matrix(1,0,0,-1,125.529,57.424)"/>
<path style="fill:none;stroke-width:0.398;stroke-linecap:round;stroke-linejoin:round;stroke:rgb(0%,0%,0%);stroke-opacity:1;stroke-miterlimit:10;" d="M -0.00165625 -3.884594 L -0.00165625 3.884938 " transform="matrix(1,0,0,-1,125.529,57.424)"/>
<path style="fill:none;stroke-width:0.398;stroke-linecap:round;stroke-linejoin:round;stroke:rgb(0%,0%,0%);stroke-opacity:1;stroke-miterlimit:10;" d="M -0.00165625 3.9865 C -2.200875 3.9865 -3.986031 2.197438 -3.986031 -0.00178125 " transform="matrix(1,0,0,-1,125.529,57.424)"/>
<path style="fill:none;stroke-width:0.398;stroke-linecap:round;stroke-linejoin:round;stroke:rgb(0%,0%,0%);stroke-opacity:1;stroke-miterlimit:10;" d="M -3.986031 -0.00178125 C -3.986031 -2.197094 -2.200875 -3.986156 -0.00165625 -3.986156 " transform="matrix(1,0,0,-1,125.529,57.424)"/>
<path style="fill:none;stroke-width:0.398;stroke-linecap:round;stroke-linejoin:round;stroke:rgb(0%,0%,0%);stroke-opacity:1;stroke-miterlimit:10;" d="M -0.00165625 -3.986156 C 2.197562 -3.986156 3.986625 -2.197094 3.986625 -0.00178125 " transform="matrix(1,0,0,-1,125.529,57.424)"/>
<path style="fill:none;stroke-width:0.398;stroke-linecap:round;stroke-linejoin:round;stroke:rgb(0%,0%,0%);stroke-opacity:1;stroke-miterlimit:10;" d="M 3.986625 -0.00178125 C 3.986625 2.197438 2.197562 3.9865 -0.00165625 3.9865 " transform="matrix(1,0,0,-1,125.529,57.424)"/>
<path style="fill:none;stroke-width:0.398;stroke-linecap:round;stroke-linejoin:round;stroke:rgb(0%,0%,0%);stroke-opacity:1;stroke-miterlimit:10;" d="M 120.449312 -55.349781 L 103.711031 -55.349781 " transform="matrix(1,0,0,-1,0.996,2.076)"/>
<path style="fill:none;stroke-width:0.398;stroke-linecap:round;stroke-linejoin:round;stroke:rgb(0%,0%,0%);stroke-opacity:1;stroke-miterlimit:10;" d="M -7.752406 -3.208812 C -3.506313 1.037281 3.368687 1.068531 7.653844 -3.111156 " transform="matrix(1,0,0,-1,150.436,57.424)"/>
<path style="fill:none;stroke-width:0.398;stroke-linecap:round;stroke-linejoin:round;stroke:rgb(0%,0%,0%);stroke-opacity:1;stroke-miterlimit:10;" d="M 0.0015 -3.986156 L 4.981969 4.982594 " transform="matrix(1,0,0,-1,150.436,57.424)"/>
<path style="fill:none;stroke-width:0.398;stroke-linecap:round;stroke-linejoin:round;stroke:rgb(0%,0%,0%);stroke-opacity:1;stroke-miterlimit:10;" d="M 158.406344 -48.373219 L 140.47275 -48.373219 " transform="matrix(1,0,0,-1,0.996,2.076)"/>
<path style="fill:none;stroke-width:0.398;stroke-linecap:round;stroke-linejoin:round;stroke:rgb(0%,0%,0%);stroke-opacity:1;stroke-miterlimit:10;" d="M 140.47275 -48.373219 L 140.47275 -62.322437 " transform="matrix(1,0,0,-1,0.996,2.076)"/>
<path style="fill:none;stroke-width:0.398;stroke-linecap:round;stroke-linejoin:round;stroke:rgb(0%,0%,0%);stroke-opacity:1;stroke-miterlimit:10;" d="M 140.47275 -62.322437 L 158.406344 -62.322437 " transform="matrix(1,0,0,-1,0.996,2.076)"/>
<path style="fill:none;stroke-width:0.398;stroke-linecap:round;stroke-linejoin:round;stroke:rgb(0%,0%,0%);stroke-opacity:1;stroke-miterlimit:10;" d="M 158.406344 -62.322437 L 158.406344 -48.373219 " transform="matrix(1,0,0,-1,0.996,2.076)"/>
<path style="fill:none;stroke-width:0.398;stroke-linecap:round;stroke-linejoin:round;stroke:rgb(0%,0%,0%);stroke-opacity:1;stroke-miterlimit:10;" d="M 140.47275 -55.349781 L 128.617281 -55.349781 " transform="matrix(1,0,0,-1,0.996,2.076)"/>
</g>
</g>
</svg>