<?xml version="1.0" encoding="UTF-8"?>
<svg xmlns="http://www.w3.org/2000/svg" xmlns:xlink="http://www.w3.org/1999/xlink"
     width="57.385600000000004" height="207.22240000000002" viewBox="0 -207.22240000000002 57.385600000000004 207.22240000000002">
<defs>
<g id="d0">
<clipPath id="embed-6406879290720675637-clip1">
  <path d="M 16 0 L 35.867188 0 L 35.867188 2 L 16 2 Z M 16 0 "/>
</clipPath>
<clipPath id="embed-6406879290720675637-clip2">
  <path d="M 16 14 L 35.867188 14 L 35.867188 16 L 16 16 Z M 16 14 "/>
</clipPath>
<clipPath id="embed-6406879290720675637-clip3">
  <path d="M 34 0 L 35.867188 0 L 35.867188 16 L 34 16 Z M 34 0 "/>
</clipPath>
<clipPath id="embed-6406879290720675637-clip4">
  <path d="M 16 19 L 35.867188 19 L 35.867188 21 L 16 21 Z M 16 19 "/>
</clipPath>
<clipPath id="embed-6406879290720675637-clip5">
  <path d="M 16 33 L 35.867188 33 L 35.867188 35 L 16 35 Z M 16 33 "/>
</clipPath>
<clipPath id="embed-6406879290720675637-clip6">
  <path d="M 34 19 L 35.867188 19 L 35.867188 35 L 34 35 Z M 34 19 "/>
</clipPath>
<clipPath id="embed-6406879290720675637-clip7">
  <path d="M 16 38 L 35.867188 38 L 35.867188 40 L 16 40 Z M 16 38 "/>
</clipPath>
<clipPath id="embed-6406879290720675637-clip8">
  <path d="M 16 52 L 35.867188 52 L 35.867188 53 L 16 53 Z M 16 52 "/>
</clipPath>
<clipPath id="embed-6406879290720675637-clip9">
  <path d="M 34 38 L 35.867188 38 L 35.867188 53 L 34 53 Z M 34 38 "/>
</clipPath>
<clipPath id="embed-6406879290720675637-clip10">
  <path d="M 16 57 L 35.867188 57 L 35.867188 58 L 16 58 Z M 16 57 "/>
</clipPath>
<clipPath id="embed-6406879290720675637-clip11">
  <path d="M 16 71 L 35.867188 71 L 35.867188 72 L 16 72 Z M 16 71 "/>
</clipPath>
<clipPath id="embed-6406879290720675637-clip12">
  <path d="M 34 57 L 35.867188 57 L 35.867188 72 L 34 72 Z M 34 57 "/>
</clipPath>
<clipPath id="embed-6406879290720675637-clip13">
  <path d="M 16 76 L 35.867188 76 L 35.867188 77 L 16 77 Z M 16 76 "/>
</clipPath>
<clipPath id="embed-6406879290720675637-clip14">
  <path d="M 16 90 L 35.867188 90 L 35.867188 91 L 16 91 Z M 16 90 "/>
</clipPath>
<clipPath id="embed-6406879290720675637-clip15">
  <path d="M 34 76 L 35.867188 76 L 35.867188 91 L 34 91 Z M 34 76 "/>
</clipPath>
<clipPath id="embed-6406879290720675637-clip16">
  <path d="M 16 95 L 35.867188 95 L 35.867188 96 L 16 96 Z M 16 95 "/>
</clipPath>
<clipPath id="embed-6406879290720675637-clip17">
  <path d="M 16 109 L 35.867188 109 L 35.867188 110 L 16 110 Z M 16 109 "/>
</clipPath>
<clipPath id="embed-6406879290720675637-clip18">
  <path d="M 34 95 L 35.867188 95 L 35.867188 110 L 34 110 Z M 34 95 "/>
</clipPath>
<clipPath id="embed-6406879290720675637-clip19">
  <path d="M 16 114 L 35.867188 114 L 35.867188 115 L 16 115 Z M 16 114 "/>
</clipPath>
<clipPath id="embed-6406879290720675637-clip20">
  <path d="M 16 128 L 35.867188 128 L 35.867188 129 L 16 129 Z M 16 128 "/>
</clipPath>
<clipPath id="embed-6406879290720675637-clip21">
  <path d="M 34 114 L 35.867188 114 L 35.867188 129 L 34 129 Z M 34 114 "/>
</clipPath>
</g>
</defs>
<g transform="scale(1.5999999999999999) translate(0, -129.514)">
<g id="embed-6406879290720675637-surface1">
<path style="fill:none;stroke-width:0.398;stroke-linecap:round;stroke-linejoin:round;stroke:rgb(0%,0%,0%);stroke-opacity:1;stroke-miterlimit:10;" d="M -7.750656 -3.209688 C -3.504562 1.036406 3.370438 1.067656 7.651688 -3.112031 " transform="matrix(1,0,0,-1,25.903,7.97)"/>
<path style="fill:none;stroke-width:0.398;stroke-linecap:round;stroke-linejoin:round;stroke:rgb(0%,0%,0%);stroke-opacity:1;stroke-miterlimit:10;" d="M -0.00065625 -3.983125 L 4.979813 4.981719 " transform="matrix(1,0,0,-1,25.903,7.97)"/>
<g clip-path="url(#embed-6406879290720675637-clip1)" clip-rule="nonzero">
<path style="fill:none;stroke-width:0.398;stroke-linecap:round;stroke-linejoin:round;stroke:rgb(0%,0%,0%);stroke-opacity:1;stroke-miterlimit:10;" d="M 33.871188 6.973906 L 15.9415 6.973906 " transform="matrix(1,0,0,-1,0.996,7.97)"/>
</g>
<path style="fill:none;stroke-width:0.398;stroke-linecap:round;stroke-linejoin:round;stroke:rgb(0%,0%,0%);stroke-opacity:1;stroke-miterlimit:10;" d="M 15.9415 6.973906 L 15.9415 -6.975313 " transform="matrix(1,0,0,-1,0.996,7.97)"/>
<g clip-path="url(#embed-6406879290720675637-clip2)" clip-rule="nonzero">
<path style="fill:none;stroke-width:0.398;stroke-linecap:round;stroke-linejoin:round;stroke:rgb(0%,0%,0%);stroke-opacity:1;stroke-miterlimit:10;" d="M 15.9415 -6.975313 L 33.871188 -6.975313 " transform="matrix(1,0,0,-1,0.996,7.97)"/>
</g>
<g clip-path="url(#embed-6406879290720675637-clip3)" clip-rule="nonzero">
<path style="fill:none;stroke-width:0.398;stroke-linecap:round;stroke-linejoin:round;stroke:rgb(0%,0%,0%);stroke-opacity:1;stroke-miterlimit:10;" d="M 33.871188 -6.975313 L 33.871188 6.973906 " transform="matrix(1,0,0,-1,0.996,7.97)"/>
</g>
<path style="fill:none;stroke-width:0.398;stroke-linecap:round;stroke-linejoin:round;stroke:rgb(0%,0%,0%);stroke-opacity:1;stroke-miterlimit:10;" d="M 15.9415 0.00125 L 0.00009375 0.00125 " transform="matrix(1,0,0,-1,0.996,7.97)"/>
<path style="fill:none;stroke-width:0.398;stroke-linecap:round;stroke-linejoin:round;stroke:rgb(0%,0%,0%);stroke-opacity:1;stroke-miterlimit:10;" d="M -7.750656 -3.206469 C -3.504562 1.035719 3.370438 1.066969 7.651688 -3.112719 " transform="matrix(1,0,0,-1,25.903,26.899)"/>
<path style="fill:none;stroke-width:0.398;stroke-linecap:round;stroke-linejoin:round;stroke:rgb(0%,0%,0%);stroke-opacity:1;stroke-miterlimit:10;" d="M -0.00065625 -3.983813 L 4.979813 4.981031 " transform="matrix(1,0,0,-1,25.903,26.899)"/>
<g clip-path="url(#embed-6406879290720675637-clip4)" clip-rule="nonzero">
<path style="fill:none;stroke-width:0.398;stroke-linecap:round;stroke-linejoin:round;stroke:rgb(0%,0%,0%);stroke-opacity:1;stroke-miterlimit:10;" d="M 33.871188 -11.955781 L 15.9415 -11.955781 " transform="matrix(1,0,0,-1,0.996,7.97)"/>
</g>
<path style="fill:none;stroke-width:0.398;stroke-linecap:round;stroke-linejoin:round;stroke:rgb(0%,0%,0%);stroke-opacity:1;stroke-miterlimit:10;" d="M 15.9415 -11.955781 L 15.9415 -25.901094 " transform="matrix(1,0,0,-1,0.996,7.97)"/>
<g clip-path="url(#embed-6406879290720675637-clip5)" clip-rule="nonzero">
<path style="fill:none;stroke-width:0.398;stroke-linecap:round;stroke-linejoin:round;stroke:rgb(0%,0%,0%);stroke-opacity:1;stroke-miterlimit:10;" d="M 15.9415 -25.901094 L 33.871188 -25.901094 " transform="matrix(1,0,0,-1,0.996,7.97)"/>
</g>
<g clip-path="url(#embed-6406879290720675637-clip6)" clip-rule="nonzero">
<path style="fill:none;stroke-width:0.398;stroke-linecap:round;stroke-linejoin:round;stroke:rgb(0%,0%,0%);stroke-opacity:1;stroke-miterlimit:10;" d="M 33.871188 -25.901094 L 33.871188 -11.955781 " transform="matrix(1,0,0,-1,0.996,7.97)"/>
</g>
<path style="fill:none;stroke-width:0.398;stroke-linecap:round;stroke-linejoin:round;stroke:rgb(0%,0%,0%);stroke-opacity:1;stroke-miterlimit:10;" d="M 15.9415 -18.928438 L 0.00009375 -18.928438 " transform="matrix(1,0,0,-1,0.996,7.97)"/>
<path style="fill:none;stroke-width:0.398;stroke-linecap:round;stroke-linejoin:round;stroke:rgb(0%,0%,0%);stroke-opacity:1;stroke-miterlimit:10;" d="M -7.750656 -3.207156 C -3.504562 1.035031 3.370438 1.066281 7.651688 -3.1095 " transform="matrix(1,0,0,-1,25.903,45.828)"/>
<path style="fill:none;stroke-width:0.398;stroke-linecap:round;stroke-linejoin:round;stroke:rgb(0%,0%,0%);stroke-opacity:1;stroke-miterlimit:10;" d="M -0.00065625 -3.9845 L 4.979813 4.980344 " transform="matrix(1,0,0,-1,25.903,45.828)"/>
<g clip-path="url(#embed-6406879290720675637-clip7)" clip-rule="nonzero">
<path style="fill:none;stroke-width:0.398;stroke-linecap:round;stroke-linejoin:round;stroke:rgb(0%,0%,0%);stroke-opacity:1;stroke-miterlimit:10;" d="M 33.871188 -30.885469 L 15.9415 -30.885469 " transform="matrix(1,0,0,-1,0.996,7.97)"/>
</g>
<path style="fill:none;stroke-width:0.398;stroke-linecap:round;stroke-linejoin:round;stroke:rgb(0%,0%,0%);stroke-opacity:1;stroke-miterlimit:10;" d="M 15.9415 -30.885469 L 15.9415 -44.830781 " transform="matrix(1,0,0,-1,0.996,7.97)"/>
<g clip-path="url(#embed-6406879290720675637-clip8)" clip-rule="nonzero">
<path style="fill:none;stroke-width:0.398;stroke-linecap:round;stroke-linejoin:round;stroke:rgb(0%,0%,0%);stroke-opacity:1;stroke-miterlimit:10;" d="M 15.9415 -44.830781 L 33.871188 -44.830781 " transform="matrix(1,0,0,-1,0.996,7.97)"/>
</g>
<g clip-path="url(#embed-6406879290720675637-clip9)" clip-rule="nonzero">
<path style="fill:none;stroke-width:0.398;stroke-linecap:round;stroke-linejoin:round;stroke:rgb(0%,0%,0%);stroke-opacity:1;stroke-miterlimit:10;" d="M 33.871188 -44.830781 L 33.871188 -30.885469 " transform="matrix(1,0,0,-1,0.996,7.97)"/>
</g>
<path style="fill:none;stroke-width:0.398;stroke-linecap:round;stroke-linejoin:round;stroke:rgb(0%,0%,0%);stroke-opacity:1;stroke-miterlimit:10;" d="M 15.9415 -37.858125 L 0.00009375 -37.858125 " transform="matrix(1,0,0,-1,0.996,7.97)"/>
<path style="fill:none;stroke-width:0.398;stroke-linecap:round;stroke-linejoin:round;stroke:rgb(0%,0%,0%);stroke-opacity:1;stroke-miterlimit:10;" d="M -7.750656 -3.207844 C -3.504562 1.034344 3.370438 1.0695 7.651688 -3.110188 " transform="matrix(1,0,0,-1,25.903,64.757)"/>
<path style="fill:none;stroke-width:0.398;stroke-linecap:round;stroke-linejoin:round;stroke:rgb(0%,0%,0%);stroke-opacity:1;stroke-miterlimit:10;" d="M -0.00065625 -3.985188 L 4.979813 4.979656 " transform="matrix(1,0,0,-1,25.903,64.757)"/>
<g clip-path="url(#embed-6406879290720675637-clip10)" clip-rule="nonzero">
<path style="fill:none;stroke-width:0.398;stroke-linecap:round;stroke-linejoin:round;stroke:rgb(0%,0%,0%);stroke-opacity:1;stroke-miterlimit:10;" d="M 33.871188 -49.81125 L 15.9415 -49.81125 " transform="matrix(1,0,0,-1,0.996,7.97)"/>
</g>
<path style="fill:none;stroke-width:0.398;stroke-linecap:round;stroke-linejoin:round;stroke:rgb(0%,0%,0%);stroke-opacity:1;stroke-miterlimit:10;" d="M 15.9415 -49.81125 L 15.9415 -63.760469 " transform="matrix(1,0,0,-1,0.996,7.97)"/>
<g clip-path="url(#embed-6406879290720675637-clip11)" clip-rule="nonzero">
<path style="fill:none;stroke-width:0.398;stroke-linecap:round;stroke-linejoin:round;stroke:rgb(0%,0%,0%);stroke-opacity:1;stroke-miterlimit:10;" d="M 15.9415 -63.760469 L 33.871188 -63.760469 " transform="matrix(1,0,0,-1,0.996,7.97)"/>
</g>
<g clip-path="url(#embed-6406879290720675637-clip12)" clip-rule="nonzero">
<path style="fill:none;stroke-width:0.398;stroke-linecap:round;stroke-linejoin:round;stroke:rgb(0%,0%,0%);stroke-opacity:1;stroke-miterlimit:10;" d="M 33.871188 -63.760469 L 33.871188 -49.81125 " transform="matrix(1,0,0,-1,0.996,7.97)"/>
</g>
<path style="fill:none;stroke-width:0.398;stroke-linecap:round;stroke-linejoin:round;stroke:rgb(0%,0%,0%);stroke-opacity:1;stroke-miterlimit:10;" d="M 15.9415 -56.787813 L 0.00009375 -56.787813 " transform="matrix(1,0,0,-1,0.996,7.97)"/>
<path style="fill:none;stroke-width:0.398;stroke-linecap:round;stroke-linejoin:round;stroke:rgb(0%,0%,0%);stroke-opacity:1;stroke-miterlimit:10;" d="M -7.750656 -3.208531 C -3.504562 1.037562 3.370438 1.068812 7.651688 -3.110875 " transform="matrix(1,0,0,-1,25.903,83.686)"/>
<path style="fill:none;stroke-width:0.398;stroke-linecap:round;stroke-linejoin:round;stroke:rgb(0%,0%,0%);stroke-opacity:1;stroke-miterlimit:10;" d="M -0.00065625 -3.985875 L 4.979813 4.982875 " transform="matrix(1,0,0,-1,25.903,83.686)"/>
<g clip-path="url(#embed-6406879290720675637-clip13)" clip-rule="nonzero">
<path style="fill:none;stroke-width:0.398;stroke-linecap:round;stroke-linejoin:round;stroke:rgb(0%,0%,0%);stroke-opacity:1;stroke-miterlimit:10;" d="M 33.871188 -68.740938 L 15.9415 -68.740938 " transform="matrix(1,0,0,-1,0.996,7.97)"/>
</g>
<path style="fill:none;stroke-width:0.398;stroke-linecap:round;stroke-linejoin:round;stroke:rgb(0%,0%,0%);stroke-opacity:1;stroke-miterlimit:10;" d="M 15.9415 -68.740938 L 15.9415 -82.690156 " transform="matrix(1,0,0,-1,0.996,7.97)"/>
<g clip-path="url(#embed-6406879290720675637-clip14)" clip-rule="nonzero">
<path style="fill:none;stroke-width:0.398;stroke-linecap:round;stroke-linejoin:round;stroke:rgb(0%,0%,0%);stroke-opacity:1;stroke-miterlimit:10;" d="M 15.9415 -82.690156 L 33.871188 -82.690156 " transform="matrix(1,0,0,-1,0.996,7.97)"/>
</g>
<g clip-path="url(#embed-6406879290720675637-clip15)" clip-rule="nonzero">
<path style="fill:none;stroke-width:0.398;stroke-linecap:round;stroke-linejoin:round;stroke:rgb(0%,0%,0%);stroke-opacity:1;stroke-miterlimit:10;" d="M 33.871188 -82.690156 L 33.871188 -68.740938 " transform="matrix(1,0,0,-1,0.996,7.97)"/>
</g>
<path style="fill:none;stroke-width:0.398;stroke-linecap:round;stroke-linejoin:round;stroke:rgb(0%,0%,0%);stroke-opacity:1;stroke-miterlimit:10;" d="M 15.9415 -75.7175 L 0.00009375 -75.7175 " transform="matrix(1,0,0,-1,0.996,7.97)"/>
<path style="fill:none;stroke-width:0.398;stroke-linecap:round;stroke-linejoin:round;stroke:rgb(0%,0%,0%);stroke-opacity:1;stroke-miterlimit:10;" d="M -7.750656 -3.209219 C -3.504562 1.036875 3.370438 1.068125 7.651688 -3.111563 " transform="matrix(1,0,0,-1,25.903,102.615)"/>
<path style="fill:none;stroke-width:0.398;stroke-linecap:round;stroke-linejoin:round;stroke:rgb(0%,0%,0%);stroke-opacity:1;stroke-miterlimit:10;" d="M -0.00065625 -3.986563 L 4.979813 4.982187 " transform="matrix(1,0,0,-1,25.903,102.615)"/>
<g clip-path="url(#embed-6406879290720675637-clip16)" clip-rule="nonzero">
<path style="fill:none;stroke-width:0.398;stroke-linecap:round;stroke-linejoin:round;stroke:rgb(0%,0%,0%);stroke-opacity:1;stroke-miterlimit:10;" d="M 33.871188 -87.670625 L 15.9415 -87.670625 " transform="matrix(1,0,0,-1,0.996,7.97)"/>
</g>
<path style="fill:none;stroke-width:0.398;stroke-linecap:round;stroke-linejoin:round;stroke:rgb(0%,0%,0%);stroke-opacity:1;stroke-miterlimit:10;" d="M 15.9415 -87.670625 L 15.9415 -101.619844 " transform="matrix(1,0,0,-1,0.996,7.97)"/>
<g clip-path="url(#embed-6406879290720675637-clip17)" clip-rule="nonzero">
<path style="fill:none;stroke-width:0.398;stroke-linecap:round;stroke-linejoin:round;stroke:rgb(0%,0%,0%);stroke-opacity:1;stroke-miterlimit:10;" d="M 15.9415 -101.619844 L 33.871188 -101.619844 " transform="matrix(1,0,0,-1,0.996,7.97)"/>
</g>
<g clip-path="url(#embed-6406879290720675637-clip18)" clip-rule="nonzero">
<path style="fill:none;stroke-width:0.398;stroke-linecap:round;stroke-linejoin:round;stroke:rgb(0%,0%,0%);stroke-opacity:1;stroke-miterlimit:10;" d="M 33.871188 -101.619844 L 33.871188 -87.670625 " transform="matrix(1,0,0,-1,0.996,7.97)"/>
</g>
<path style="fill:none;stroke-width:0.398;stroke-linecap:round;stroke-linejoin:round;stroke:rgb(0%,0%,0%);stroke-opacity:1;stroke-miterlimit:10;" d="M 15.9415 -94.643281 L 0.00009375 -94.643281 " transform="matrix(1,0,0,-1,0.996,7.97)"/>
<path style="fill:none;stroke-width:0.398;stroke-linecap:round;stroke-linejoin:round;stroke:rgb(0%,0%,0%);stroke-opacity:1;stroke-miterlimit:10;" d="M -7.750656 -3.209906 C -3.504562 1.036187 3.370438 1.067437 7.651688 -3.11225 " transform="matrix(1,0,0,-1,25.903,121.544)"/>
<path style="fill:none;stroke-width:0.398;stroke-linecap:round;stroke-linejoin:round;stroke:rgb(0%,0%,0%);stroke-opacity:1;stroke-miterlimit:10;" d="M -0.00065625 -3.983344 L 4.979813 4.9815 " transform="matrix(1,0,0,-1,25.903,121.544)"/>
<g clip-path="url(#embed-6406879290720675637-clip19)" clip-rule="nonzero">
<path style="fill:none;stroke-width:0.398;stroke-linecap:round;stroke-linejoin:round;stroke:rgb(0%,0%,0%);stroke-opacity:1;stroke-miterlimit:10;" d="M 33.871188 -106.600313 L 15.9415 -106.600313 " transform="matrix(1,0,0,-1,0.996,7.97)"/>
</g>
<path style="fill:none;stroke-width:0.398;stroke-linecap:round;stroke-linejoin:round;stroke:rgb(0%,0%,0%);stroke-opacity:1;stroke-miterlimit:10;" d="M 15.9415 -106.600313 L 15.9415 -120.549531 " transform="matrix(1,0,0,-1,0.996,7.97)"/>
<g clip-path="url(#embed-6406879290720675637-clip20)" clip-rule="nonzero">
<path style="fill:none;stroke-width:0.398;stroke-linecap:round;stroke-linejoin:round;stroke:rgb(0%,0%,0%);stroke-opacity:1;stroke-miterlimit:10;" d="M 15.9415 -120.549531 L 33.871188 -120.549531 " transform="matrix(1,0,0,-1,0.996,7.97)"/>
</g>
<g clip-path="url(#embed-6406879290720675637-clip21)" clip-rule="nonzero">
<path style="fill:none;stroke-width:0.398;stroke-linecap:round;stroke-linejoin:round;stroke:rgb(0%,0%,0%);stroke-opacity:1;stroke-miterlimit:10;" d="M 33.871188 -120.549531 L 33.871188 -106.600313 " transform="matrix(1,0,0,-1,0.996,7.97)"/>
</g>
<path style="fill:none;stroke-width:0.398;stroke-linecap:round;stroke-linejoin:round;stroke:rgb(0%,0%,0%);stroke-opacity:1;stroke-miterlimit:10;" d="M 15.9415 -113.572969 L 0.00009375 -113.572969 " transform="matrix(1,0,0,-1,0.996,7.97)"/>
</g>
</g>
</svg>