<?xml version="1.0" encoding="UTF-8"?>
<svg xmlns="http://www.w3.org/2000/svg" xmlns:xlink="http://www.w3.org/1999/xlink"
     width="346.7" height="143.196" viewBox="0 -143.196 346.7 143.196">
<defs>
<g id="d0">
<g>
<symbol overflow="visible" id="embed-6729012812981236549-glyph0-0">
<path style="stroke:none;" d=""/>
</symbol>
<symbol overflow="visible" id="embed-6729012812981236549-glyph0-1">
<path style="stroke:none;" d="M 1.578125 -7.125 C 1.578125 -7.296875 1.578125 -7.484375 1.390625 -7.484375 C 1.1875 -7.484375 1.1875 -7.296875 1.1875 -7.125 L 1.1875 2.140625 C 1.1875 2.3125 1.1875 2.5 1.390625 2.5 C 1.578125 2.5 1.578125 2.3125 1.578125 2.140625 Z M 1.578125 -7.125 "/>
</symbol>
<symbol overflow="visible" id="embed-6729012812981236549-glyph0-2">
<path style="stroke:none;" d="M 2.71875 -2.328125 C 2.765625 -2.4375 2.765625 -2.46875 2.765625 -2.5 C 2.765625 -2.515625 2.765625 -2.546875 2.71875 -2.65625 L 0.984375 -7.25 C 0.921875 -7.421875 0.859375 -7.484375 0.75 -7.484375 C 0.640625 -7.484375 0.546875 -7.390625 0.546875 -7.28125 C 0.546875 -7.25 0.546875 -7.234375 0.59375 -7.125 L 2.359375 -2.5 L 0.59375 2.109375 C 0.546875 2.21875 0.546875 2.25 0.546875 2.296875 C 0.546875 2.40625 0.640625 2.5 0.75 2.5 C 0.875 2.5 0.921875 2.390625 0.953125 2.296875 Z M 2.71875 -2.328125 "/>
</symbol>
<symbol overflow="visible" id="embed-6729012812981236549-glyph0-3">
<path style="stroke:none;" d="M 4.421875 -2.5 C 4.421875 -3.5625 3.53125 -4.421875 2.5 -4.421875 C 1.421875 -4.421875 0.546875 -3.53125 0.546875 -2.5 C 0.546875 -1.4375 1.421875 -0.5625 2.5 -0.5625 C 3.53125 -0.5625 4.421875 -1.421875 4.421875 -2.5 Z M 4.421875 -2.5 "/>
</symbol>
<symbol overflow="visible" id="embed-6729012812981236549-glyph1-0">
<path style="stroke:none;" d=""/>
</symbol>
<symbol overflow="visible" id="embed-6729012812981236549-glyph1-1">
<path style="stroke:none;" d="M 4.578125 -3.1875 C 4.578125 -3.984375 4.53125 -4.78125 4.1875 -5.515625 C 3.734375 -6.484375 2.90625 -6.640625 2.5 -6.640625 C 1.890625 -6.640625 1.171875 -6.375 0.75 -5.453125 C 0.4375 -4.765625 0.390625 -3.984375 0.390625 -3.1875 C 0.390625 -2.4375 0.421875 -1.546875 0.84375 -0.78125 C 1.265625 0.015625 2 0.21875 2.484375 0.21875 C 3.015625 0.21875 3.78125 0.015625 4.21875 -0.9375 C 4.53125 -1.625 4.578125 -2.40625 4.578125 -3.1875 Z M 2.484375 0 C 2.09375 0 1.5 -0.25 1.328125 -1.203125 C 1.21875 -1.796875 1.21875 -2.71875 1.21875 -3.3125 C 1.21875 -3.953125 1.21875 -4.609375 1.296875 -5.140625 C 1.484375 -6.328125 2.234375 -6.421875 2.484375 -6.421875 C 2.8125 -6.421875 3.46875 -6.234375 3.65625 -5.25 C 3.765625 -4.6875 3.765625 -3.9375 3.765625 -3.3125 C 3.765625 -2.5625 3.765625 -1.890625 3.65625 -1.25 C 3.5 -0.296875 2.9375 0 2.484375 0 Z M 2.484375 0 "/>
</symbol>
<symbol overflow="visible" id="embed-6729012812981236549-glyph2-0">
<path style="stroke:none;" d=""/>
</symbol>
<symbol overflow="visible" id="embed-6729012812981236549-glyph2-1">
<path style="stroke:none;" d="M 7.609375 -6.046875 C 7.703125 -6.40625 7.71875 -6.5 8.4375 -6.5 C 8.703125 -6.5 8.78125 -6.5 8.78125 -6.703125 C 8.78125 -6.8125 8.671875 -6.8125 8.640625 -6.8125 C 8.359375 -6.8125 7.640625 -6.78125 7.359375 -6.78125 C 7.078125 -6.78125 6.375 -6.8125 6.078125 -6.8125 C 6 -6.8125 5.890625 -6.8125 5.890625 -6.609375 C 5.890625 -6.5 5.984375 -6.5 6.171875 -6.5 C 6.1875 -6.5 6.375 -6.5 6.546875 -6.484375 C 6.734375 -6.453125 6.8125 -6.453125 6.8125 -6.3125 C 6.8125 -6.28125 6.8125 -6.265625 6.78125 -6.125 L 6.1875 -3.703125 L 3.140625 -3.703125 L 3.734375 -6.046875 C 3.8125 -6.40625 3.84375 -6.5 4.5625 -6.5 C 4.828125 -6.5 4.90625 -6.5 4.90625 -6.703125 C 4.90625 -6.8125 4.796875 -6.8125 4.765625 -6.8125 C 4.484375 -6.8125 3.765625 -6.78125 3.484375 -6.78125 C 3.203125 -6.78125 2.5 -6.8125 2.203125 -6.8125 C 2.125 -6.8125 2.015625 -6.8125 2.015625 -6.609375 C 2.015625 -6.5 2.109375 -6.5 2.296875 -6.5 C 2.3125 -6.5 2.5 -6.5 2.671875 -6.484375 C 2.84375 -6.453125 2.9375 -6.453125 2.9375 -6.3125 C 2.9375 -6.28125 2.9375 -6.25 2.90625 -6.125 L 1.5625 -0.78125 C 1.46875 -0.390625 1.453125 -0.3125 0.65625 -0.3125 C 0.484375 -0.3125 0.390625 -0.3125 0.390625 -0.109375 C 0.390625 0 0.515625 0 0.53125 0 C 0.8125 0 1.515625 -0.03125 1.796875 -0.03125 C 2 -0.03125 2.21875 -0.015625 2.4375 -0.015625 C 2.65625 -0.015625 2.875 0 3.078125 0 C 3.15625 0 3.28125 0 3.28125 -0.203125 C 3.28125 -0.3125 3.1875 -0.3125 3 -0.3125 C 2.625 -0.3125 2.359375 -0.3125 2.359375 -0.484375 C 2.359375 -0.546875 2.375 -0.59375 2.375 -0.65625 L 3.0625 -3.390625 L 6.09375 -3.390625 C 5.6875 -1.734375 5.453125 -0.78125 5.40625 -0.640625 C 5.3125 -0.3125 5.125 -0.3125 4.5 -0.3125 C 4.359375 -0.3125 4.265625 -0.3125 4.265625 -0.109375 C 4.265625 0 4.390625 0 4.40625 0 C 4.6875 0 5.390625 -0.03125 5.671875 -0.03125 C 5.875 -0.03125 6.09375 -0.015625 6.3125 -0.015625 C 6.53125 -0.015625 6.75 0 6.953125 0 C 7.03125 0 7.15625 0 7.15625 -0.203125 C 7.15625 -0.3125 7.0625 -0.3125 6.875 -0.3125 C 6.515625 -0.3125 6.234375 -0.3125 6.234375 -0.484375 C 6.234375 -0.546875 6.25 -0.59375 6.265625 -0.65625 Z M 7.609375 -6.046875 "/>
</symbol>
</g>
</g>
</defs>
<g transform="scale(1.3333333333333333) translate(0, -107.397)">
<g id="embed-6729012812981236549-surface1">
<path style="fill:none;stroke-width:0.398;stroke-linecap:round;stroke-linejoin:round;stroke:rgb(0%,0%,0%);stroke-opacity:1;stroke-miterlimit:10;" d="M 49.812594 -0.00009375 L 24.906344 -0.00009375 " transform="matrix(1,0,0,-1,0.996,0.996)"/>
<path style="fill:none;stroke-width:0.398;stroke-linecap:round;stroke-linejoin:round;stroke:rgb(0%,0%,0%);stroke-opacity:1;stroke-miterlimit:10;" d="M 74.718844 -0.00009375 L 49.812594 -0.00009375 " transform="matrix(1,0,0,-1,0.996,0.996)"/>
<path style="fill:none;stroke-width:0.398;stroke-linecap:round;stroke-linejoin:round;stroke:rgb(0%,0%,0%);stroke-opacity:1;stroke-miterlimit:10;" d="M 99.625094 -0.00009375 L 74.718844 -0.00009375 " transform="matrix(1,0,0,-1,0.996,0.996)"/>
<path style="fill:none;stroke-width:0.398;stroke-linecap:round;stroke-linejoin:round;stroke:rgb(0%,0%,0%);stroke-opacity:1;stroke-miterlimit:10;" d="M 124.531344 -0.00009375 L 99.625094 -0.00009375 " transform="matrix(1,0,0,-1,0.996,0.996)"/>
<path style="fill:none;stroke-width:0.398;stroke-linecap:round;stroke-linejoin:round;stroke:rgb(0%,0%,0%);stroke-opacity:1;stroke-miterlimit:10;" d="M 149.4415 -0.00009375 L 124.531344 -0.00009375 " transform="matrix(1,0,0,-1,0.996,0.996)"/>
<path style="fill:none;stroke-width:0.398;stroke-linecap:round;stroke-linejoin:round;stroke:rgb(0%,0%,0%);stroke-opacity:1;stroke-miterlimit:10;" d="M 174.34775 -0.00009375 L 149.4415 -0.00009375 " transform="matrix(1,0,0,-1,0.996,0.996)"/>
<path style="fill:none;stroke-width:0.398;stroke-linecap:round;stroke-linejoin:round;stroke:rgb(0%,0%,0%);stroke-opacity:1;stroke-miterlimit:10;" d="M 199.254 -0.00009375 L 174.34775 -0.00009375 " transform="matrix(1,0,0,-1,0.996,0.996)"/>
<path style="fill:none;stroke-width:0.398;stroke-linecap:round;stroke-linejoin:round;stroke:rgb(0%,0%,0%);stroke-opacity:1;stroke-miterlimit:10;" d="M 224.16025 -0.00009375 L 199.254 -0.00009375 " transform="matrix(1,0,0,-1,0.996,0.996)"/>
<path style="fill:none;stroke-width:0.398;stroke-linecap:round;stroke-linejoin:round;stroke:rgb(0%,0%,0%);stroke-opacity:1;stroke-miterlimit:10;" d="M 249.0665 -0.00009375 L 224.16025 -0.00009375 " transform="matrix(1,0,0,-1,0.996,0.996)"/>
<path style="fill:none;stroke-width:0.398;stroke-linecap:round;stroke-linejoin:round;stroke:rgb(0%,0%,0%);stroke-opacity:1;stroke-miterlimit:10;" d="M 49.812594 -9.0665 L 24.906344 -9.0665 " transform="matrix(1,0,0,-1,0.996,0.996)"/>
<path style="fill:none;stroke-width:0.398;stroke-linecap:round;stroke-linejoin:round;stroke:rgb(0%,0%,0%);stroke-opacity:1;stroke-miterlimit:10;" d="M -3.883969 -0.0005 L 3.885563 -0.0005 " transform="matrix(1,0,0,-1,75.716,10.062)"/>
<path style="fill:none;stroke-width:0.398;stroke-linecap:round;stroke-linejoin:round;stroke:rgb(0%,0%,0%);stroke-opacity:1;stroke-miterlimit:10;" d="M -0.00115625 -3.883313 L -0.00115625 3.886219 " transform="matrix(1,0,0,-1,75.716,10.062)"/>
<path style="fill:none;stroke-width:0.398;stroke-linecap:round;stroke-linejoin:round;stroke:rgb(0%,0%,0%);stroke-opacity:1;stroke-miterlimit:10;" d="M -0.00115625 3.983875 C -2.200375 3.983875 -3.985531 2.198719 -3.985531 -0.0005 " transform="matrix(1,0,0,-1,75.716,10.062)"/>
<path style="fill:none;stroke-width:0.398;stroke-linecap:round;stroke-linejoin:round;stroke:rgb(0%,0%,0%);stroke-opacity:1;stroke-miterlimit:10;" d="M -3.985531 -0.0005 C -3.985531 -2.199719 -2.200375 -3.984875 -0.00115625 -3.984875 " transform="matrix(1,0,0,-1,75.716,10.062)"/>
<path style="fill:none;stroke-width:0.398;stroke-linecap:round;stroke-linejoin:round;stroke:rgb(0%,0%,0%);stroke-opacity:1;stroke-miterlimit:10;" d="M -0.00115625 -3.984875 C 2.198063 -3.984875 3.983219 -2.199719 3.983219 -0.0005 " transform="matrix(1,0,0,-1,75.716,10.062)"/>
<path style="fill:none;stroke-width:0.398;stroke-linecap:round;stroke-linejoin:round;stroke:rgb(0%,0%,0%);stroke-opacity:1;stroke-miterlimit:10;" d="M 3.983219 -0.0005 C 3.983219 2.198719 2.198063 3.983875 -0.00115625 3.983875 " transform="matrix(1,0,0,-1,75.716,10.062)"/>
<path style="fill:none;stroke-width:0.398;stroke-linecap:round;stroke-linejoin:round;stroke:rgb(0%,0%,0%);stroke-opacity:1;stroke-miterlimit:10;" d="M 70.636813 -9.0665 L 49.812594 -9.0665 " transform="matrix(1,0,0,-1,0.996,0.996)"/>
<path style="fill:none;stroke-width:0.398;stroke-linecap:round;stroke-linejoin:round;stroke:rgb(0%,0%,0%);stroke-opacity:1;stroke-miterlimit:10;" d="M 99.625094 -9.0665 L 78.804781 -9.0665 " transform="matrix(1,0,0,-1,0.996,0.996)"/>
<path style="fill:none;stroke-width:0.398;stroke-linecap:round;stroke-linejoin:round;stroke:rgb(0%,0%,0%);stroke-opacity:1;stroke-miterlimit:10;" d="M 124.531344 -9.0665 L 99.625094 -9.0665 " transform="matrix(1,0,0,-1,0.996,0.996)"/>
<path style="fill:none;stroke-width:0.398;stroke-linecap:round;stroke-linejoin:round;stroke:rgb(0%,0%,0%);stroke-opacity:1;stroke-miterlimit:10;" d="M 149.4415 -9.0665 L 124.531344 -9.0665 " transform="matrix(1,0,0,-1,0.996,0.996)"/>
<path style="fill:none;stroke-width:0.398;stroke-linecap:round;stroke-linejoin:round;stroke:rgb(0%,0%,0%);stroke-opacity:1;stroke-miterlimit:10;" d="M 174.34775 -9.0665 L 149.4415 -9.0665 " transform="matrix(1,0,0,-1,0.996,0.996)"/>
<path style="fill:none;stroke-width:0.398;stroke-linecap:round;stroke-linejoin:round;stroke:rgb(0%,0%,0%);stroke-opacity:1;stroke-miterlimit:10;" d="M 199.254 -9.0665 L 174.34775 -9.0665 " transform="matrix(1,0,0,-1,0.996,0.996)"/>
<path style="fill:none;stroke-width:0.398;stroke-linecap:round;stroke-linejoin:round;stroke:rgb(0%,0%,0%);stroke-opacity:1;stroke-miterlimit:10;" d="M 224.16025 -9.0665 L 199.254 -9.0665 " transform="matrix(1,0,0,-1,0.996,0.996)"/>
<path style="fill:none;stroke-width:0.398;stroke-linecap:round;stroke-linejoin:round;stroke:rgb(0%,0%,0%);stroke-opacity:1;stroke-miterlimit:10;" d="M 249.0665 -9.0665 L 224.16025 -9.0665 " transform="matrix(1,0,0,-1,0.996,0.996)"/>
<path style="fill:none;stroke-width:0.398;stroke-linecap:round;stroke-linejoin:round;stroke:rgb(0%,0%,0%);stroke-opacity:1;stroke-miterlimit:10;" d="M 49.812594 -22.218844 L 24.906344 -22.218844 " transform="matrix(1,0,0,-1,0.996,0.996)"/>
<path style="fill:none;stroke-width:0.398;stroke-linecap:round;stroke-linejoin:round;stroke:rgb(0%,0%,0%);stroke-opacity:1;stroke-miterlimit:10;" d="M 74.718844 -22.218844 L 49.812594 -22.218844 " transform="matrix(1,0,0,-1,0.996,0.996)"/>
<path style="fill:none;stroke-width:0.398;stroke-linecap:round;stroke-linejoin:round;stroke:rgb(0%,0%,0%);stroke-opacity:1;stroke-miterlimit:10;" d="M 99.625094 -22.218844 L 74.718844 -22.218844 " transform="matrix(1,0,0,-1,0.996,0.996)"/>
<path style="fill:none;stroke-width:0.398;stroke-linecap:round;stroke-linejoin:round;stroke:rgb(0%,0%,0%);stroke-opacity:1;stroke-miterlimit:10;" d="M -3.884469 -0.00184375 L 3.885063 -0.00184375 " transform="matrix(1,0,0,-1,125.529,23.213)"/>
<path style="fill:none;stroke-width:0.398;stroke-linecap:round;stroke-linejoin:round;stroke:rgb(0%,0%,0%);stroke-opacity:1;stroke-miterlimit:10;" d="M -0.00165625 -3.884656 L -0.00165625 3.884875 " transform="matrix(1,0,0,-1,125.529,23.213)"/>
<path style="fill:none;stroke-width:0.398;stroke-linecap:round;stroke-linejoin:round;stroke:rgb(0%,0%,0%);stroke-opacity:1;stroke-miterlimit:10;" d="M -0.00165625 3.986437 C -2.200875 3.986437 -3.986031 2.197375 -3.986031 -0.00184375 " transform="matrix(1,0,0,-1,125.529,23.213)"/>
<path style="fill:none;stroke-width:0.398;stroke-linecap:round;stroke-linejoin:round;stroke:rgb(0%,0%,0%);stroke-opacity:1;stroke-miterlimit:10;" d="M -3.986031 -0.00184375 C -3.986031 -2.197156 -2.200875 -3.986219 -0.00165625 -3.986219 " transform="matrix(1,0,0,-1,125.529,23.213)"/>
<path style="fill:none;stroke-width:0.398;stroke-linecap:round;stroke-linejoin:round;stroke:rgb(0%,0%,0%);stroke-opacity:1;stroke-miterlimit:10;" d="M -0.00165625 -3.986219 C 2.197563 -3.986219 3.986625 -2.197156 3.986625 -0.00184375 " transform="matrix(1,0,0,-1,125.529,23.213)"/>
<path style="fill:none;stroke-width:0.398;stroke-linecap:round;stroke-linejoin:round;stroke:rgb(0%,0%,0%);stroke-opacity:1;stroke-miterlimit:10;" d="M 3.986625 -0.00184375 C 3.986625 2.197375 2.197563 3.986437 -0.00165625 3.986437 " transform="matrix(1,0,0,-1,125.529,23.213)"/>
<path style="fill:none;stroke-width:0.398;stroke-linecap:round;stroke-linejoin:round;stroke:rgb(0%,0%,0%);stroke-opacity:1;stroke-miterlimit:10;" d="M 120.449313 -22.218844 L 99.625094 -22.218844 " transform="matrix(1,0,0,-1,0.996,0.996)"/>
<path style="fill:none;stroke-width:0.398;stroke-linecap:round;stroke-linejoin:round;stroke:rgb(0%,0%,0%);stroke-opacity:1;stroke-miterlimit:10;" d="M 149.4415 -22.218844 L 128.617281 -22.218844 " transform="matrix(1,0,0,-1,0.996,0.996)"/>
<path style="fill:none;stroke-width:0.398;stroke-linecap:round;stroke-linejoin:round;stroke:rgb(0%,0%,0%);stroke-opacity:1;stroke-miterlimit:10;" d="M 174.34775 -22.218844 L 149.4415 -22.218844 " transform="matrix(1,0,0,-1,0.996,0.996)"/>
<path style="fill:none;stroke-width:0.398;stroke-linecap:round;stroke-linejoin:round;stroke:rgb(0%,0%,0%);stroke-opacity:1;stroke-miterlimit:10;" d="M 199.254 -22.218844 L 174.34775 -22.218844 " transform="matrix(1,0,0,-1,0.996,0.996)"/>
<path style="fill:none;stroke-width:0.398;stroke-linecap:round;stroke-linejoin:round;stroke:rgb(0%,0%,0%);stroke-opacity:1;stroke-miterlimit:10;" d="M 224.16025 -22.218844 L 199.254 -22.218844 " transform="matrix(1,0,0,-1,0.996,0.996)"/>
<path style="fill:none;stroke-width:0.398;stroke-linecap:round;stroke-linejoin:round;stroke:rgb(0%,0%,0%);stroke-opacity:1;stroke-miterlimit:10;" d="M 249.0665 -22.218844 L 224.16025 -22.218844 " transform="matrix(1,0,0,-1,0.996,0.996)"/>
<path style="fill:none;stroke-width:0.398;stroke-linecap:round;stroke-linejoin:round;stroke:rgb(0%,0%,0%);stroke-opacity:1;stroke-miterlimit:10;" d="M 49.812594 -31.281344 L 24.906344 -31.281344 " transform="matrix(1,0,0,-1,0.996,0.996)"/>
<path style="fill:none;stroke-width:0.398;stroke-linecap:round;stroke-linejoin:round;stroke:rgb(0%,0%,0%);stroke-opacity:1;stroke-miterlimit:10;" d="M 74.718844 -31.281344 L 49.812594 -31.281344 " transform="matrix(1,0,0,-1,0.996,0.996)"/>
<path style="fill:none;stroke-width:0.398;stroke-linecap:round;stroke-linejoin:round;stroke:rgb(0%,0%,0%);stroke-opacity:1;stroke-miterlimit:10;" d="M 99.625094 -31.281344 L 74.718844 -31.281344 " transform="matrix(1,0,0,-1,0.996,0.996)"/>
<path style="fill:none;stroke-width:0.398;stroke-linecap:round;stroke-linejoin:round;stroke:rgb(0%,0%,0%);stroke-opacity:1;stroke-miterlimit:10;" d="M 124.531344 -31.281344 L 99.625094 -31.281344 " transform="matrix(1,0,0,-1,0.996,0.996)"/>
<path style="fill:none;stroke-width:0.398;stroke-linecap:round;stroke-linejoin:round;stroke:rgb(0%,0%,0%);stroke-opacity:1;stroke-miterlimit:10;" d="M 149.4415 -31.281344 L 124.531344 -31.281344 " transform="matrix(1,0,0,-1,0.996,0.996)"/>
<path style="fill:none;stroke-width:0.398;stroke-linecap:round;stroke-linejoin:round;stroke:rgb(0%,0%,0%);stroke-opacity:1;stroke-miterlimit:10;" d="M 174.34775 -31.281344 L 149.4415 -31.281344 " transform="matrix(1,0,0,-1,0.996,0.996)"/>
<path style="fill:none;stroke-width:0.398;stroke-linecap:round;stroke-linejoin:round;stroke:rgb(0%,0%,0%);stroke-opacity:1;stroke-miterlimit:10;" d="M 199.254 -31.281344 L 174.34775 -31.281344 " transform="matrix(1,0,0,-1,0.996,0.996)"/>
<path style="fill:none;stroke-width:0.398;stroke-linecap:round;stroke-linejoin:round;stroke:rgb(0%,0%,0%);stroke-opacity:1;stroke-miterlimit:10;" d="M 224.16025 -31.281344 L 199.254 -31.281344 " transform="matrix(1,0,0,-1,0.996,0.996)"/>
<path style="fill:none;stroke-width:0.398;stroke-linecap:round;stroke-linejoin:round;stroke:rgb(0%,0%,0%);stroke-opacity:1;stroke-miterlimit:10;" d="M 249.0665 -31.281344 L 224.16025 -31.281344 " transform="matrix(1,0,0,-1,0.996,0.996)"/>
<path style="fill:none;stroke-width:0.398;stroke-linecap:round;stroke-linejoin:round;stroke:rgb(0%,0%,0%);stroke-opacity:1;stroke-miterlimit:10;" d="M 49.812594 -36.265719 L 24.906344 -36.265719 " transform="matrix(1,0,0,-1,0.996,0.996)"/>
<path style="fill:none;stroke-width:0.398;stroke-linecap:round;stroke-linejoin:round;stroke:rgb(0%,0%,0%);stroke-opacity:1;stroke-miterlimit:10;" d="M 74.718844 -36.265719 L 49.812594 -36.265719 " transform="matrix(1,0,0,-1,0.996,0.996)"/>
<path style="fill:none;stroke-width:0.398;stroke-linecap:round;stroke-linejoin:round;stroke:rgb(0%,0%,0%);stroke-opacity:1;stroke-miterlimit:10;" d="M 99.625094 -36.265719 L 74.718844 -36.265719 " transform="matrix(1,0,0,-1,0.996,0.996)"/>
<path style="fill:none;stroke-width:0.398;stroke-linecap:round;stroke-linejoin:round;stroke:rgb(0%,0%,0%);stroke-opacity:1;stroke-miterlimit:10;" d="M 124.531344 -36.265719 L 99.625094 -36.265719 " transform="matrix(1,0,0,-1,0.996,0.996)"/>
<path style="fill:none;stroke-width:0.398;stroke-linecap:round;stroke-linejoin:round;stroke:rgb(0%,0%,0%);stroke-opacity:1;stroke-miterlimit:10;" d="M 149.4415 -36.265719 L 124.531344 -36.265719 " transform="matrix(1,0,0,-1,0.996,0.996)"/>
<path style="fill:none;stroke-width:0.398;stroke-linecap:round;stroke-linejoin:round;stroke:rgb(0%,0%,0%);stroke-opacity:1;stroke-miterlimit:10;" d="M 174.34775 -36.265719 L 149.4415 -36.265719 " transform="matrix(1,0,0,-1,0.996,0.996)"/>
<path style="fill:none;stroke-width:0.398;stroke-linecap:round;stroke-linejoin:round;stroke:rgb(0%,0%,0%);stroke-opacity:1;stroke-miterlimit:10;" d="M 199.254 -36.265719 L 174.34775 -36.265719 " transform="matrix(1,0,0,-1,0.996,0.996)"/>
<path style="fill:none;stroke-width:0.398;stroke-linecap:round;stroke-linejoin:round;stroke:rgb(0%,0%,0%);stroke-opacity:1;stroke-miterlimit:10;" d="M 224.16025 -36.265719 L 199.254 -36.265719 " transform="matrix(1,0,0,-1,0.996,0.996)"/>
<path style="fill:none;stroke-width:0.398;stroke-linecap:round;stroke-linejoin:round;stroke:rgb(0%,0%,0%);stroke-opacity:1;stroke-miterlimit:10;" d="M 249.0665 -36.265719 L 224.16025 -36.265719 " transform="matrix(1,0,0,-1,0.996,0.996)"/>
<path style="fill:none;stroke-width:0.398;stroke-linecap:round;stroke-linejoin:round;stroke:rgb(0%,0%,0%);stroke-opacity:1;stroke-miterlimit:10;" d="M 49.812594 -45.328219 L 24.906344 -45.328219 " transform="matrix(1,0,0,-1,0.996,0.996)"/>
<path style="fill:none;stroke-width:0.398;stroke-linecap:round;stroke-linejoin:round;stroke:rgb(0%,0%,0%);stroke-opacity:1;stroke-miterlimit:10;" d="M 74.718844 -45.328219 L 49.812594 -45.328219 " transform="matrix(1,0,0,-1,0.996,0.996)"/>
<path style="fill:none;stroke-width:0.398;stroke-linecap:round;stroke-linejoin:round;stroke:rgb(0%,0%,0%);stroke-opacity:1;stroke-miterlimit:10;" d="M 99.625094 -45.328219 L 74.718844 -45.328219 " transform="matrix(1,0,0,-1,0.996,0.996)"/>
<path style="fill:none;stroke-width:0.398;stroke-linecap:round;stroke-linejoin:round;stroke:rgb(0%,0%,0%);stroke-opacity:1;stroke-miterlimit:10;" d="M 124.531344 -45.328219 L 99.625094 -45.328219 " transform="matrix(1,0,0,-1,0.996,0.996)"/>
<path style="fill:none;stroke-width:0.398;stroke-linecap:round;stroke-linejoin:round;stroke:rgb(0%,0%,0%);stroke-opacity:1;stroke-miterlimit:10;" d="M -3.885219 0.00178125 L 3.884313 0.00178125 " transform="matrix(1,0,0,-1,150.436,46.326)"/>
<path style="fill:none;stroke-width:0.398;stroke-linecap:round;stroke-linejoin:round;stroke:rgb(0%,0%,0%);stroke-opacity:1;stroke-miterlimit:10;" d="M 0.0015 -3.884938 L 0.0015 3.884594 " transform="matrix(1,0,0,-1,150.436,46.326)"/>
<path style="fill:none;stroke-width:0.398;stroke-linecap:round;stroke-linejoin:round;stroke:rgb(0%,0%,0%);stroke-opacity:1;stroke-miterlimit:10;" d="M 0.0015 3.986156 C -2.197719 3.986156 -3.986781 2.197094 -3.986781 0.00178125 " transform="matrix(1,0,0,-1,150.436,46.326)"/>
<path style="fill:none;stroke-width:0.398;stroke-linecap:round;stroke-linejoin:round;stroke:rgb(0%,0%,0%);stroke-opacity:1;stroke-miterlimit:10;" d="M -3.986781 0.00178125 C -3.986781 -2.197438 -2.197719 -3.9865 0.0015 -3.9865 " transform="matrix(1,0,0,-1,150.436,46.326)"/>
<path style="fill:none;stroke-width:0.398;stroke-linecap:round;stroke-linejoin:round;stroke:rgb(0%,0%,0%);stroke-opacity:1;stroke-miterlimit:10;" d="M 0.0015 -3.9865 C 2.200719 -3.9865 3.985875 -2.197438 3.985875 0.00178125 " transform="matrix(1,0,0,-1,150.436,46.326)"/>
<path style="fill:none;stroke-width:0.398;stroke-linecap:round;stroke-linejoin:round;stroke:rgb(0%,0%,0%);stroke-opacity:1;stroke-miterlimit:10;" d="M 3.985875 0.00178125 C 3.985875 2.197094 2.200719 3.986156 0.0015 3.986156 " transform="matrix(1,0,0,-1,150.436,46.326)"/>
<path style="fill:none;stroke-width:0.398;stroke-linecap:round;stroke-linejoin:round;stroke:rgb(0%,0%,0%);stroke-opacity:1;stroke-miterlimit:10;" d="M 145.355563 -45.328219 L 124.531344 -45.328219 " transform="matrix(1,0,0,-1,0.996,0.996)"/>
<path style="fill:none;stroke-width:0.398;stroke-linecap:round;stroke-linejoin:round;stroke:rgb(0%,0%,0%);stroke-opacity:1;stroke-miterlimit:10;" d="M 174.34775 -45.328219 L 153.523531 -45.328219 " transform="matrix(1,0,0,-1,0.996,0.996)"/>
<path style="fill:none;stroke-width:0.398;stroke-linecap:round;stroke-linejoin:round;stroke:rgb(0%,0%,0%);stroke-opacity:1;stroke-miterlimit:10;" d="M 199.254 -45.328219 L 174.34775 -45.328219 " transform="matrix(1,0,0,-1,0.996,0.996)"/>
<path style="fill:none;stroke-width:0.398;stroke-linecap:round;stroke-linejoin:round;stroke:rgb(0%,0%,0%);stroke-opacity:1;stroke-miterlimit:10;" d="M 224.16025 -45.328219 L 199.254 -45.328219 " transform="matrix(1,0,0,-1,0.996,0.996)"/>
<path style="fill:none;stroke-width:0.398;stroke-linecap:round;stroke-linejoin:round;stroke:rgb(0%,0%,0%);stroke-opacity:1;stroke-miterlimit:10;" d="M 249.0665 -45.328219 L 224.16025 -45.328219 " transform="matrix(1,0,0,-1,0.996,0.996)"/>
<path style="fill:none;stroke-width:0.398;stroke-linecap:round;stroke-linejoin:round;stroke:rgb(0%,0%,0%);stroke-opacity:1;stroke-miterlimit:10;" d="M 49.812594 -58.480563 L 24.906344 -58.480563 " transform="matrix(1,0,0,-1,0.996,0.996)"/>
<path style="fill:none;stroke-width:0.398;stroke-linecap:round;stroke-linejoin:round;stroke:rgb(0%,0%,0%);stroke-opacity:1;stroke-miterlimit:10;" d="M 74.718844 -58.480563 L 49.812594 -58.480563 " transform="matrix(1,0,0,-1,0.996,0.996)"/>
<path style="fill:none;stroke-width:0.398;stroke-linecap:round;stroke-linejoin:round;stroke:rgb(0%,0%,0%);stroke-opacity:1;stroke-miterlimit:10;" d="M 99.625094 -58.480563 L 74.718844 -58.480563 " transform="matrix(1,0,0,-1,0.996,0.996)"/>
<path style="fill:none;stroke-width:0.398;stroke-linecap:round;stroke-linejoin:round;stroke:rgb(0%,0%,0%);stroke-opacity:1;stroke-miterlimit:10;" d="M 124.531344 -58.480563 L 99.625094 -58.480563 " transform="matrix(1,0,0,-1,0.996,0.996)"/>
<path style="fill:none;stroke-width:0.398;stroke-linecap:round;stroke-linejoin:round;stroke:rgb(0%,0%,0%);stroke-opacity:1;stroke-miterlimit:10;" d="M 149.4415 -58.480563 L 124.531344 -58.480563 " transform="matrix(1,0,0,-1,0.996,0.996)"/>
<path style="fill:none;stroke-width:0.398;stroke-linecap:round;stroke-linejoin:round;stroke:rgb(0%,0%,0%);stroke-opacity:1;stroke-miterlimit:10;" d="M 174.34775 -58.480563 L 149.4415 -58.480563 " transform="matrix(1,0,0,-1,0.996,0.996)"/>
<path style="fill:none;stroke-width:0.398;stroke-linecap:round;stroke-linejoin:round;stroke:rgb(0%,0%,0%);stroke-opacity:1;stroke-miterlimit:10;" d="M -3.885719 0.0004375 L 3.883813 0.0004375 " transform="matrix(1,0,0,-1,200.249,59.477)"/>
<path style="fill:none;stroke-width:0.398;stroke-linecap:round;stroke-linejoin:round;stroke:rgb(0%,0%,0%);stroke-opacity:1;stroke-miterlimit:10;" d="M 0.001 -3.886281 L 0.001 3.88325 " transform="matrix(1,0,0,-1,200.249,59.477)"/>
<path style="fill:none;stroke-width:0.398;stroke-linecap:round;stroke-linejoin:round;stroke:rgb(0%,0%,0%);stroke-opacity:1;stroke-miterlimit:10;" d="M 0.001 3.984812 C -2.198219 3.984812 -3.983375 2.199656 -3.983375 0.0004375 " transform="matrix(1,0,0,-1,200.249,59.477)"/>
<path style="fill:none;stroke-width:0.398;stroke-linecap:round;stroke-linejoin:round;stroke:rgb(0%,0%,0%);stroke-opacity:1;stroke-miterlimit:10;" d="M -3.983375 0.0004375 C -3.983375 -2.198781 -2.198219 -3.983938 0.001 -3.983938 " transform="matrix(1,0,0,-1,200.249,59.477)"/>
<path style="fill:none;stroke-width:0.398;stroke-linecap:round;stroke-linejoin:round;stroke:rgb(0%,0%,0%);stroke-opacity:1;stroke-miterlimit:10;" d="M 0.001 -3.983938 C 2.200219 -3.983938 3.985375 -2.198781 3.985375 0.0004375 " transform="matrix(1,0,0,-1,200.249,59.477)"/>
<path style="fill:none;stroke-width:0.398;stroke-linecap:round;stroke-linejoin:round;stroke:rgb(0%,0%,0%);stroke-opacity:1;stroke-miterlimit:10;" d="M 3.985375 0.0004375 C 3.985375 2.199656 2.200219 3.984812 0.001 3.984812 " transform="matrix(1,0,0,-1,200.249,59.477)"/>
<path style="fill:none;stroke-width:0.398;stroke-linecap:round;stroke-linejoin:round;stroke:rgb(0%,0%,0%);stroke-opacity:1;stroke-miterlimit:10;" d="M 195.168063 -58.480563 L 174.34775 -58.480563 " transform="matrix(1,0,0,-1,0.996,0.996)"/>
<path style="fill:none;stroke-width:0.398;stroke-linecap:round;stroke-linejoin:round;stroke:rgb(0%,0%,0%);stroke-opacity:1;stroke-miterlimit:10;" d="M 224.16025 -58.480563 L 203.336031 -58.480563 " transform="matrix(1,0,0,-1,0.996,0.996)"/>
<path style="fill:none;stroke-width:0.398;stroke-linecap:round;stroke-linejoin:round;stroke:rgb(0%,0%,0%);stroke-opacity:1;stroke-miterlimit:10;" d="M 249.0665 -58.480563 L 224.16025 -58.480563 " transform="matrix(1,0,0,-1,0.996,0.996)"/>
<path style="fill:none;stroke-width:0.398;stroke-linecap:round;stroke-linejoin:round;stroke:rgb(0%,0%,0%);stroke-opacity:1;stroke-miterlimit:10;" d="M 49.812594 -67.546969 L 24.906344 -67.546969 " transform="matrix(1,0,0,-1,0.996,0.996)"/>
<path style="fill:none;stroke-width:0.398;stroke-linecap:round;stroke-linejoin:round;stroke:rgb(0%,0%,0%);stroke-opacity:1;stroke-miterlimit:10;" d="M 74.718844 -67.546969 L 49.812594 -67.546969 " transform="matrix(1,0,0,-1,0.996,0.996)"/>
<path style="fill:none;stroke-width:0.398;stroke-linecap:round;stroke-linejoin:round;stroke:rgb(0%,0%,0%);stroke-opacity:1;stroke-miterlimit:10;" d="M 99.625094 -67.546969 L 74.718844 -67.546969 " transform="matrix(1,0,0,-1,0.996,0.996)"/>
<path style="fill:none;stroke-width:0.398;stroke-linecap:round;stroke-linejoin:round;stroke:rgb(0%,0%,0%);stroke-opacity:1;stroke-miterlimit:10;" d="M 124.531344 -67.546969 L 99.625094 -67.546969 " transform="matrix(1,0,0,-1,0.996,0.996)"/>
<path style="fill:none;stroke-width:0.398;stroke-linecap:round;stroke-linejoin:round;stroke:rgb(0%,0%,0%);stroke-opacity:1;stroke-miterlimit:10;" d="M 149.4415 -67.546969 L 124.531344 -67.546969 " transform="matrix(1,0,0,-1,0.996,0.996)"/>
<path style="fill:none;stroke-width:0.398;stroke-linecap:round;stroke-linejoin:round;stroke:rgb(0%,0%,0%);stroke-opacity:1;stroke-miterlimit:10;" d="M 174.34775 -67.546969 L 149.4415 -67.546969 " transform="matrix(1,0,0,-1,0.996,0.996)"/>
<path style="fill:none;stroke-width:0.398;stroke-linecap:round;stroke-linejoin:round;stroke:rgb(0%,0%,0%);stroke-opacity:1;stroke-miterlimit:10;" d="M 199.254 -67.546969 L 174.34775 -67.546969 " transform="matrix(1,0,0,-1,0.996,0.996)"/>
<path style="fill:none;stroke-width:0.398;stroke-linecap:round;stroke-linejoin:round;stroke:rgb(0%,0%,0%);stroke-opacity:1;stroke-miterlimit:10;" d="M 224.16025 -67.546969 L 199.254 -67.546969 " transform="matrix(1,0,0,-1,0.996,0.996)"/>
<path style="fill:none;stroke-width:0.398;stroke-linecap:round;stroke-linejoin:round;stroke:rgb(0%,0%,0%);stroke-opacity:1;stroke-miterlimit:10;" d="M 249.0665 -67.546969 L 224.16025 -67.546969 " transform="matrix(1,0,0,-1,0.996,0.996)"/>
<g style="fill:rgb(0%,0%,0%);fill-opacity:1;">
  <use xlink:href="#embed-6729012812981236549-glyph0-1" x="20.091" y="82.989"/>
</g>
<g style="fill:rgb(0%,0%,0%);fill-opacity:1;">
  <use xlink:href="#embed-6729012812981236549-glyph1-1" x="22.859" y="82.989"/>
</g>
<g style="fill:rgb(0%,0%,0%);fill-opacity:1;">
  <use xlink:href="#embed-6729012812981236549-glyph0-2" x="27.84" y="82.989"/>
</g>
<g style="fill:rgb(0%,0%,0%);fill-opacity:1;">
  <use xlink:href="#embed-6729012812981236549-glyph2-1" x="46.264" y="83.902"/>
</g>
<path style="fill:none;stroke-width:0.398;stroke-linecap:round;stroke-linejoin:round;stroke:rgb(0%,0%,0%);stroke-opacity:1;stroke-miterlimit:10;" d="M 57.34775 -73.109469 L 42.277438 -73.109469 " transform="matrix(1,0,0,-1,0.996,0.996)"/>
<path style="fill:none;stroke-width:0.398;stroke-linecap:round;stroke-linejoin:round;stroke:rgb(0%,0%,0%);stroke-opacity:1;stroke-miterlimit:10;" d="M 42.277438 -73.109469 L 42.277438 -85.894625 " transform="matrix(1,0,0,-1,0.996,0.996)"/>
<path style="fill:none;stroke-width:0.398;stroke-linecap:round;stroke-linejoin:round;stroke:rgb(0%,0%,0%);stroke-opacity:1;stroke-miterlimit:10;" d="M 42.277438 -85.894625 L 57.34775 -85.894625 " transform="matrix(1,0,0,-1,0.996,0.996)"/>
<path style="fill:none;stroke-width:0.398;stroke-linecap:round;stroke-linejoin:round;stroke:rgb(0%,0%,0%);stroke-opacity:1;stroke-miterlimit:10;" d="M 57.34775 -85.894625 L 57.34775 -73.109469 " transform="matrix(1,0,0,-1,0.996,0.996)"/>
<path style="fill:none;stroke-width:0.398;stroke-linecap:round;stroke-linejoin:round;stroke:rgb(0%,0%,0%);stroke-opacity:1;stroke-miterlimit:10;" d="M 42.277438 -79.500094 L 30.718844 -79.500094 " transform="matrix(1,0,0,-1,0.996,0.996)"/>
<g style="fill:rgb(0%,0%,0%);fill-opacity:1;">
  <use xlink:href="#embed-6729012812981236549-glyph0-3" x="73.225" y="82.961"/>
</g>
<path style="fill:none;stroke-width:0.398;stroke-linecap:round;stroke-linejoin:round;stroke:rgb(0%,0%,0%);stroke-opacity:1;stroke-miterlimit:10;" d="M 74.718844 -78.421969 L 74.718844 -13.152438 " transform="matrix(1,0,0,-1,0.996,0.996)"/>
<path style="fill:none;stroke-width:0.398;stroke-linecap:round;stroke-linejoin:round;stroke:rgb(0%,0%,0%);stroke-opacity:1;stroke-miterlimit:10;" d="M 73.500094 -79.500094 L 57.34775 -79.500094 " transform="matrix(1,0,0,-1,0.996,0.996)"/>
<g style="fill:rgb(0%,0%,0%);fill-opacity:1;">
  <use xlink:href="#embed-6729012812981236549-glyph0-3" x="98.132" y="82.961"/>
</g>
<path style="fill:none;stroke-width:0.398;stroke-linecap:round;stroke-linejoin:round;stroke:rgb(0%,0%,0%);stroke-opacity:1;stroke-miterlimit:10;" d="M 99.625094 -80.855563 L 99.625094 -94.34775 " transform="matrix(1,0,0,-1,0.996,0.996)"/>
<path style="fill:none;stroke-width:0.398;stroke-linecap:round;stroke-linejoin:round;stroke:rgb(0%,0%,0%);stroke-opacity:1;stroke-miterlimit:10;" d="M 98.41025 -79.500094 L 75.937594 -79.500094 " transform="matrix(1,0,0,-1,0.996,0.996)"/>
<g style="fill:rgb(0%,0%,0%);fill-opacity:1;">
  <use xlink:href="#embed-6729012812981236549-glyph0-3" x="123.039" y="82.961"/>
</g>
<path style="fill:none;stroke-width:0.398;stroke-linecap:round;stroke-linejoin:round;stroke:rgb(0%,0%,0%);stroke-opacity:1;stroke-miterlimit:10;" d="M 124.531344 -78.421969 L 124.531344 -26.300875 " transform="matrix(1,0,0,-1,0.996,0.996)"/>
<path style="fill:none;stroke-width:0.398;stroke-linecap:round;stroke-linejoin:round;stroke:rgb(0%,0%,0%);stroke-opacity:1;stroke-miterlimit:10;" d="M 123.3165 -79.500094 L 100.843844 -79.500094 " transform="matrix(1,0,0,-1,0.996,0.996)"/>
<g style="fill:rgb(0%,0%,0%);fill-opacity:1;">
  <use xlink:href="#embed-6729012812981236549-glyph0-3" x="147.945" y="82.961"/>
</g>
<path style="fill:none;stroke-width:0.398;stroke-linecap:round;stroke-linejoin:round;stroke:rgb(0%,0%,0%);stroke-opacity:1;stroke-miterlimit:10;" d="M 149.4415 -78.421969 L 149.4415 -49.414156 " transform="matrix(1,0,0,-1,0.996,0.996)"/>
<path style="fill:none;stroke-width:0.398;stroke-linecap:round;stroke-linejoin:round;stroke:rgb(0%,0%,0%);stroke-opacity:1;stroke-miterlimit:10;" d="M 148.22275 -79.500094 L 125.750094 -79.500094 " transform="matrix(1,0,0,-1,0.996,0.996)"/>
<g style="fill:rgb(0%,0%,0%);fill-opacity:1;">
  <use xlink:href="#embed-6729012812981236549-glyph0-3" x="172.852" y="82.961"/>
</g>
<path style="fill:none;stroke-width:0.398;stroke-linecap:round;stroke-linejoin:round;stroke:rgb(0%,0%,0%);stroke-opacity:1;stroke-miterlimit:10;" d="M 174.34775 -80.855563 L 174.34775 -94.34775 " transform="matrix(1,0,0,-1,0.996,0.996)"/>
<path style="fill:none;stroke-width:0.398;stroke-linecap:round;stroke-linejoin:round;stroke:rgb(0%,0%,0%);stroke-opacity:1;stroke-miterlimit:10;" d="M 173.129 -79.500094 L 150.656344 -79.500094 " transform="matrix(1,0,0,-1,0.996,0.996)"/>
<g style="fill:rgb(0%,0%,0%);fill-opacity:1;">
  <use xlink:href="#embed-6729012812981236549-glyph0-3" x="197.758" y="82.961"/>
</g>
<path style="fill:none;stroke-width:0.398;stroke-linecap:round;stroke-linejoin:round;stroke:rgb(0%,0%,0%);stroke-opacity:1;stroke-miterlimit:10;" d="M 199.254 -78.421969 L 199.254 -62.5665 " transform="matrix(1,0,0,-1,0.996,0.996)"/>
<path style="fill:none;stroke-width:0.398;stroke-linecap:round;stroke-linejoin:round;stroke:rgb(0%,0%,0%);stroke-opacity:1;stroke-miterlimit:10;" d="M 198.03525 -79.500094 L 175.562594 -79.500094 " transform="matrix(1,0,0,-1,0.996,0.996)"/>
<g style="fill:rgb(0%,0%,0%);fill-opacity:1;">
  <use xlink:href="#embed-6729012812981236549-glyph2-1" x="220.61" y="83.902"/>
</g>
<path style="fill:none;stroke-width:0.398;stroke-linecap:round;stroke-linejoin:round;stroke:rgb(0%,0%,0%);stroke-opacity:1;stroke-miterlimit:10;" d="M 231.695406 -73.109469 L 216.625094 -73.109469 " transform="matrix(1,0,0,-1,0.996,0.996)"/>
<path style="fill:none;stroke-width:0.398;stroke-linecap:round;stroke-linejoin:round;stroke:rgb(0%,0%,0%);stroke-opacity:1;stroke-miterlimit:10;" d="M 216.625094 -73.109469 L 216.625094 -85.894625 " transform="matrix(1,0,0,-1,0.996,0.996)"/>
<path style="fill:none;stroke-width:0.398;stroke-linecap:round;stroke-linejoin:round;stroke:rgb(0%,0%,0%);stroke-opacity:1;stroke-miterlimit:10;" d="M 216.625094 -85.894625 L 231.695406 -85.894625 " transform="matrix(1,0,0,-1,0.996,0.996)"/>
<path style="fill:none;stroke-width:0.398;stroke-linecap:round;stroke-linejoin:round;stroke:rgb(0%,0%,0%);stroke-opacity:1;stroke-miterlimit:10;" d="M 231.695406 -85.894625 L 231.695406 -73.109469 " transform="matrix(1,0,0,-1,0.996,0.996)"/>
<path style="fill:none;stroke-width:0.398;stroke-linecap:round;stroke-linejoin:round;stroke:rgb(0%,0%,0%);stroke-opacity:1;stroke-miterlimit:10;" d="M 216.625094 -79.500094 L 200.468844 -79.500094 " transform="matrix(1,0,0,-1,0.996,0.996)"/>
<path style="fill:none;stroke-width:0.398;stroke-linecap:round;stroke-linejoin:round;stroke:rgb(0%,0%,0%);stroke-opacity:1;stroke-miterlimit:10;" d="M -7.7495 -3.209031 C -3.507312 1.037062 3.367688 1.068312 7.652844 -3.111375 " transform="matrix(1,0,0,-1,250.062,80.498)"/>
<path style="fill:none;stroke-width:0.398;stroke-linecap:round;stroke-linejoin:round;stroke:rgb(0%,0%,0%);stroke-opacity:1;stroke-miterlimit:10;" d="M 0.0005 -3.986375 L 4.980969 4.982375 " transform="matrix(1,0,0,-1,250.062,80.498)"/>
<path style="fill:none;stroke-width:0.398;stroke-linecap:round;stroke-linejoin:round;stroke:rgb(0%,0%,0%);stroke-opacity:1;stroke-miterlimit:10;" d="M 258.031344 -72.527438 L 240.101656 -72.527438 " transform="matrix(1,0,0,-1,0.996,0.996)"/>
<path style="fill:none;stroke-width:0.398;stroke-linecap:round;stroke-linejoin:round;stroke:rgb(0%,0%,0%);stroke-opacity:1;stroke-miterlimit:10;" d="M 240.101656 -72.527438 L 240.101656 -86.476656 " transform="matrix(1,0,0,-1,0.996,0.996)"/>
<path style="fill:none;stroke-width:0.398;stroke-linecap:round;stroke-linejoin:round;stroke:rgb(0%,0%,0%);stroke-opacity:1;stroke-miterlimit:10;" d="M 240.101656 -86.476656 L 258.031344 -86.476656 " transform="matrix(1,0,0,-1,0.996,0.996)"/>
<path style="fill:none;stroke-width:0.398;stroke-linecap:round;stroke-linejoin:round;stroke:rgb(0%,0%,0%);stroke-opacity:1;stroke-miterlimit:10;" d="M 258.031344 -86.476656 L 258.031344 -72.527438 " transform="matrix(1,0,0,-1,0.996,0.996)"/>
<path style="fill:none;stroke-width:0.398;stroke-linecap:round;stroke-linejoin:round;stroke:rgb(0%,0%,0%);stroke-opacity:1;stroke-miterlimit:10;" d="M 240.101656 -79.500094 L 231.695406 -79.500094 " transform="matrix(1,0,0,-1,0.996,0.996)"/>
<g style="fill:rgb(0%,0%,0%);fill-opacity:1;">
  <use xlink:href="#embed-6729012812981236549-glyph0-1" x="20.091" y="101.918"/>
</g>
<g style="fill:rgb(0%,0%,0%);fill-opacity:1;">
  <use xlink:href="#embed-6729012812981236549-glyph1-1" x="22.859" y="101.918"/>
</g>
<g style="fill:rgb(0%,0%,0%);fill-opacity:1;">
  <use xlink:href="#embed-6729012812981236549-glyph0-2" x="27.84" y="101.918"/>
</g>
<path style="fill:none;stroke-width:0.398;stroke-linecap:round;stroke-linejoin:round;stroke:rgb(0%,0%,0%);stroke-opacity:1;stroke-miterlimit:10;" d="M 49.812594 -98.429781 L 30.718844 -98.429781 " transform="matrix(1,0,0,-1,0.996,0.996)"/>
<path style="fill:none;stroke-width:0.398;stroke-linecap:round;stroke-linejoin:round;stroke:rgb(0%,0%,0%);stroke-opacity:1;stroke-miterlimit:10;" d="M 74.718844 -98.429781 L 49.812594 -98.429781 " transform="matrix(1,0,0,-1,0.996,0.996)"/>
<path style="fill:none;stroke-width:0.398;stroke-linecap:round;stroke-linejoin:round;stroke:rgb(0%,0%,0%);stroke-opacity:1;stroke-miterlimit:10;" d="M -3.884719 0.00121875 L 3.884813 0.00121875 " transform="matrix(1,0,0,-1,100.623,99.427)"/>
<path style="fill:none;stroke-width:0.398;stroke-linecap:round;stroke-linejoin:round;stroke:rgb(0%,0%,0%);stroke-opacity:1;stroke-miterlimit:10;" d="M -0.00190625 -3.8855 L -0.00190625 3.884031 " transform="matrix(1,0,0,-1,100.623,99.427)"/>
<path style="fill:none;stroke-width:0.398;stroke-linecap:round;stroke-linejoin:round;stroke:rgb(0%,0%,0%);stroke-opacity:1;stroke-miterlimit:10;" d="M -0.00190625 3.985594 C -2.197219 3.985594 -3.986281 2.200438 -3.986281 0.00121875 " transform="matrix(1,0,0,-1,100.623,99.427)"/>
<path style="fill:none;stroke-width:0.398;stroke-linecap:round;stroke-linejoin:round;stroke:rgb(0%,0%,0%);stroke-opacity:1;stroke-miterlimit:10;" d="M -3.986281 0.00121875 C -3.986281 -2.198 -2.197219 -3.983156 -0.00190625 -3.983156 " transform="matrix(1,0,0,-1,100.623,99.427)"/>
<path style="fill:none;stroke-width:0.398;stroke-linecap:round;stroke-linejoin:round;stroke:rgb(0%,0%,0%);stroke-opacity:1;stroke-miterlimit:10;" d="M -0.00190625 -3.983156 C 2.197313 -3.983156 3.986375 -2.198 3.986375 0.00121875 " transform="matrix(1,0,0,-1,100.623,99.427)"/>
<path style="fill:none;stroke-width:0.398;stroke-linecap:round;stroke-linejoin:round;stroke:rgb(0%,0%,0%);stroke-opacity:1;stroke-miterlimit:10;" d="M 3.986375 0.00121875 C 3.986375 2.200438 2.197313 3.985594 -0.00190625 3.985594 " transform="matrix(1,0,0,-1,100.623,99.427)"/>
<path style="fill:none;stroke-width:0.398;stroke-linecap:round;stroke-linejoin:round;stroke:rgb(0%,0%,0%);stroke-opacity:1;stroke-miterlimit:10;" d="M 95.543063 -98.429781 L 74.718844 -98.429781 " transform="matrix(1,0,0,-1,0.996,0.996)"/>
<path style="fill:none;stroke-width:0.398;stroke-linecap:round;stroke-linejoin:round;stroke:rgb(0%,0%,0%);stroke-opacity:1;stroke-miterlimit:10;" d="M 124.531344 -98.429781 L 103.711031 -98.429781 " transform="matrix(1,0,0,-1,0.996,0.996)"/>
<path style="fill:none;stroke-width:0.398;stroke-linecap:round;stroke-linejoin:round;stroke:rgb(0%,0%,0%);stroke-opacity:1;stroke-miterlimit:10;" d="M 149.4415 -98.429781 L 124.531344 -98.429781 " transform="matrix(1,0,0,-1,0.996,0.996)"/>
<path style="fill:none;stroke-width:0.398;stroke-linecap:round;stroke-linejoin:round;stroke:rgb(0%,0%,0%);stroke-opacity:1;stroke-miterlimit:10;" d="M -3.884969 0.00121875 L 3.884563 0.00121875 " transform="matrix(1,0,0,-1,175.342,99.427)"/>
<path style="fill:none;stroke-width:0.398;stroke-linecap:round;stroke-linejoin:round;stroke:rgb(0%,0%,0%);stroke-opacity:1;stroke-miterlimit:10;" d="M 0.00175 -3.8855 L 0.00175 3.884031 " transform="matrix(1,0,0,-1,175.342,99.427)"/>
<path style="fill:none;stroke-width:0.398;stroke-linecap:round;stroke-linejoin:round;stroke:rgb(0%,0%,0%);stroke-opacity:1;stroke-miterlimit:10;" d="M 0.00175 3.985594 C -2.197469 3.985594 -3.986531 2.200438 -3.986531 0.00121875 " transform="matrix(1,0,0,-1,175.342,99.427)"/>
<path style="fill:none;stroke-width:0.398;stroke-linecap:round;stroke-linejoin:round;stroke:rgb(0%,0%,0%);stroke-opacity:1;stroke-miterlimit:10;" d="M -3.986531 0.00121875 C -3.986531 -2.198 -2.197469 -3.983156 0.00175 -3.983156 " transform="matrix(1,0,0,-1,175.342,99.427)"/>
<path style="fill:none;stroke-width:0.398;stroke-linecap:round;stroke-linejoin:round;stroke:rgb(0%,0%,0%);stroke-opacity:1;stroke-miterlimit:10;" d="M 0.00175 -3.983156 C 2.197063 -3.983156 3.986125 -2.198 3.986125 0.00121875 " transform="matrix(1,0,0,-1,175.342,99.427)"/>
<path style="fill:none;stroke-width:0.398;stroke-linecap:round;stroke-linejoin:round;stroke:rgb(0%,0%,0%);stroke-opacity:1;stroke-miterlimit:10;" d="M 3.986125 0.00121875 C 3.986125 2.200438 2.197063 3.985594 0.00175 3.985594 " transform="matrix(1,0,0,-1,175.342,99.427)"/>
<path style="fill:none;stroke-width:0.398;stroke-linecap:round;stroke-linejoin:round;stroke:rgb(0%,0%,0%);stroke-opacity:1;stroke-miterlimit:10;" d="M 170.261813 -98.429781 L 149.4415 -98.429781 " transform="matrix(1,0,0,-1,0.996,0.996)"/>
<path style="fill:none;stroke-width:0.398;stroke-linecap:round;stroke-linejoin:round;stroke:rgb(0%,0%,0%);stroke-opacity:1;stroke-miterlimit:10;" d="M 199.254 -98.429781 L 178.429781 -98.429781 " transform="matrix(1,0,0,-1,0.996,0.996)"/>
<path style="fill:none;stroke-width:0.398;stroke-linecap:round;stroke-linejoin:round;stroke:rgb(0%,0%,0%);stroke-opacity:1;stroke-miterlimit:10;" d="M 224.16025 -98.429781 L 199.254 -98.429781 " transform="matrix(1,0,0,-1,0.996,0.996)"/>
<path style="fill:none;stroke-width:0.398;stroke-linecap:round;stroke-linejoin:round;stroke:rgb(0%,0%,0%);stroke-opacity:1;stroke-miterlimit:10;" d="M -7.7495 -3.209719 C -3.507312 1.036375 3.367688 1.067625 7.652844 -3.112062 " transform="matrix(1,0,0,-1,250.062,99.427)"/>
<path style="fill:none;stroke-width:0.398;stroke-linecap:round;stroke-linejoin:round;stroke:rgb(0%,0%,0%);stroke-opacity:1;stroke-miterlimit:10;" d="M 0.0005 -3.983156 L 4.980969 4.981688 " transform="matrix(1,0,0,-1,250.062,99.427)"/>
<path style="fill:none;stroke-width:0.398;stroke-linecap:round;stroke-linejoin:round;stroke:rgb(0%,0%,0%);stroke-opacity:1;stroke-miterlimit:10;" d="M 258.031344 -91.457125 L 240.101656 -91.457125 " transform="matrix(1,0,0,-1,0.996,0.996)"/>
<path style="fill:none;stroke-width:0.398;stroke-linecap:round;stroke-linejoin:round;stroke:rgb(0%,0%,0%);stroke-opacity:1;stroke-miterlimit:10;" d="M 240.101656 -91.457125 L 240.101656 -105.402438 " transform="matrix(1,0,0,-1,0.996,0.996)"/>
<path style="fill:none;stroke-width:0.398;stroke-linecap:round;stroke-linejoin:round;stroke:rgb(0%,0%,0%);stroke-opacity:1;stroke-miterlimit:10;" d="M 240.101656 -105.402438 L 258.031344 -105.402438 " transform="matrix(1,0,0,-1,0.996,0.996)"/>
<path style="fill:none;stroke-width:0.398;stroke-linecap:round;stroke-linejoin:round;stroke:rgb(0%,0%,0%);stroke-opacity:1;stroke-miterlimit:10;" d="M 258.031344 -105.402438 L 258.031344 -91.457125 " transform="matrix(1,0,0,-1,0.996,0.996)"/>
<path style="fill:none;stroke-width:0.398;stroke-linecap:round;stroke-linejoin:round;stroke:rgb(0%,0%,0%);stroke-opacity:1;stroke-miterlimit:10;" d="M 240.101656 -98.429781 L 224.16025 -98.429781 " transform="matrix(1,0,0,-1,0.996,0.996)"/>
</g>
</g>
</svg>